<svg xmlns="http://www.w3.org/2000/svg" viewBox="0 0 50 50"><defs><style>.a{fill:#212121;}.b{fill:none;stroke:#212121;stroke-miterlimit:10;}</style></defs><path class="a" d="M36,9.5a5,5,0,0,1,5,5v21a5,5,0,0,1-5,5H14a5,5,0,0,1-5-5v-21a5,5,0,0,1,5-5H36m0-1H14a6,6,0,0,0-6,6v21a6,6,0,0,0,6,6H36a6,6,0,0,0,6-6v-21a6,6,0,0,0-6-6Z"/><path class="a" d="M42,15H8V14.5a6,6,0,0,1,6-6H36a6,6,0,0,1,6,6Z"/><polygon class="b" points="15.81 36.57 32.49 32.1 20.28 19.89 15.81 36.57"/><line class="b" x1="22.53" y1="29.94" x2="15.86" y2="36.61"/><rect class="a" x="21.71" y="21.43" width="13" height="3.91" transform="translate(24.8 -13.1) rotate(45)"/></svg>