<svg xmlns="http://www.w3.org/2000/svg" viewBox="0 0 100.86 173.99"><defs><style>.a{fill:#00ff00;}</style></defs><path class="a" d="M147,140.33a33.62,33.62,0,0,0,3.46-15.23c0-6.78-1.64-12.57-4.92-17.33s-8.28-8.79-15-12.07-15.26-6.09-25.65-8.43c-1.36-.3-2.66-.61-3.91-.91L86.41,51.79q5.52-2.72,14.47-2.71a29.5,29.5,0,0,1,14.46,3.28,24.07,24.07,0,0,1,9,8.26,19.18,19.18,0,0,1,3.11,10.26h21.67A36.1,36.1,0,0,0,143.4,51a40.6,40.6,0,0,0-16.52-14.35q-10.77-5.39-26-5.39a60.2,60.2,0,0,0-19.33,2.93c-.75.25-1.48.52-2.2.8L70.09,13l-9.22,3.88,9.54,22.68A38.34,38.34,0,0,0,57.25,54.12a31.22,31.22,0,0,0-3.34,14.17A28.48,28.48,0,0,0,57.07,82,30.91,30.91,0,0,0,66.15,92.2a56.67,56.67,0,0,0,14.41,7.37,142.65,142.65,0,0,0,17.14,4.86l16.37,38.91a45,45,0,0,1-12.61,1.56A44,44,0,0,1,88,142.73a25.57,25.57,0,0,1-11.48-7.38c-3.12-3.46-4.84-8.18-5.15-14.11H49.57a37,37,0,0,0,6,20q6,9.48,17.57,15.46t28.34,6a69,69,0,0,0,19.66-2.62l8.79,20.9L123,184l16,3,7-13-6.91,3-8.68-20.63a43.15,43.15,0,0,0,6.6-4.16A33.87,33.87,0,0,0,147,140.33ZM81.32,79a12.69,12.69,0,0,1-4.39-5,15.17,15.17,0,0,1-1.24-6.26,17.12,17.12,0,0,1,2.52-8.91c.06-.09.11-.19.18-.28L88.56,82.7A32.45,32.45,0,0,1,81.32,79Zm44.27,57.1a16.59,16.59,0,0,1-2.58,2.66l-13.25-31.49a47,47,0,0,1,8.63,3.36q6.27,3.33,8.32,7.38a19.06,19.06,0,0,1,2,8.72A14.88,14.88,0,0,1,125.59,136.11Z" transform="translate(-49.57 -13.01)"/></svg>