<svg xmlns="http://www.w3.org/2000/svg" width="37.236" height="37.236" viewBox="0 0 37.236 37.236"><defs><style>.a{fill:#1877f2;}.b{fill:#fff;}</style></defs><path class="a" d="M37.236,18.618A18.618,18.618,0,1,0,15.709,37.01V24H10.982V18.618h4.727v-4.1c0-4.666,2.78-7.244,7.032-7.244a28.63,28.63,0,0,1,4.168.364v4.582H24.561a2.691,2.691,0,0,0-3.034,2.907v3.492h5.164L25.865,24H21.527V37.01A18.622,18.622,0,0,0,37.236,18.618Z"/><path class="b" d="M165.883,116.727l.825-5.382h-5.164v-3.492a2.691,2.691,0,0,1,3.034-2.907h2.348v-4.582a28.631,28.631,0,0,0-4.168-.364c-4.253,0-7.032,2.577-7.032,7.244v4.1H151v5.382h4.727v13.01a18.821,18.821,0,0,0,5.818,0v-13.01Z" transform="translate(-140.018 -92.727)"/></svg>