<svg xmlns="http://www.w3.org/2000/svg" width="38" height="37.382" viewBox="0 0 38 37.382"><defs><style>.a{fill:#fff;}.b{fill-rule:evenodd;}</style></defs><g transform="translate(-1026.528 -962.309)"><rect class="a" width="38" height="37" rx="18.5" transform="translate(1026.528 962.691)"/><g transform="translate(1026.528 962.309)"><path class="b" d="M51,32a18.8,18.8,0,0,0-6.005,36.688c.95.172,1.3-.41,1.3-.91,0-.451-.017-1.631-.025-3.2-5.284,1.139-6.4-2.525-6.4-2.525a5.017,5.017,0,0,0-2.112-2.754c-1.722-1.172.127-1.148.127-1.148a3.975,3.975,0,0,1,2.909,1.943,4.067,4.067,0,0,0,5.53,1.566,3.992,3.992,0,0,1,1.2-2.516c-4.216-.475-8.652-2.09-8.652-9.3a7.229,7.229,0,0,1,1.951-5.049,6.714,6.714,0,0,1,.187-4.983s1.595-.508,5.225,1.926a18.254,18.254,0,0,1,9.517,0c3.63-2.434,5.217-1.926,5.217-1.926a6.714,6.714,0,0,1,.187,4.983A7.258,7.258,0,0,1,63.1,49.836c0,7.229-4.445,8.819-8.677,9.287a4.482,4.482,0,0,1,1.289,3.484c0,2.516-.025,4.549-.025,5.164,0,.5.339,1.09,1.306.9A18.793,18.793,0,0,0,51,32Z" transform="translate(-32 -32)"/></g></g></svg>