<svg xmlns="http://www.w3.org/2000/svg" width="37" height="37" viewBox="0 0 37 37"><defs><style>.a{fill:#fff;}</style></defs><g transform="translate(0.073 -0.382)"><rect class="a" width="37" height="37" rx="18.5" transform="translate(-0.073 0.382)"/><path d="M14.531,80.347a4.338,4.338,0,0,1-2.677-.931L0,70.2V83.072A2.725,2.725,0,0,0,2.725,85.8H26.337a2.725,2.725,0,0,0,2.725-2.725V70.2L17.21,79.422A4.372,4.372,0,0,1,14.531,80.347ZM.925,68.615l12.045,9.371a2.544,2.544,0,0,0,3.125,0l12.045-9.371a2.564,2.564,0,0,0,.922-1.89A2.725,2.725,0,0,0,26.337,64H2.725A2.725,2.725,0,0,0,0,66.725,2.4,2.4,0,0,0,.925,68.615Z" transform="translate(4.4 -56.28)"/></g></svg>