<svg xmlns="http://www.w3.org/2000/svg" viewBox="0 0 50 50"><defs><style>.a{fill:#0277bd;}.b{fill:#039be5;}.c{fill:#fff;}.d{fill:#eee;}.e{fill:#e65100;}</style></defs><path class="a" d="M42,6H8l3,34,14,4,14-4L42,6Z"/><path class="b" d="M25,9V40.9l11.2-3.2L38.7,9Z"/><path class="c" d="M34.1,14H25v4h4.9l-.3,4H25v4h4.4l-.3,4.5L25,31.9v4.2l7.9-2.6L33.6,22h0Z"/><path class="d" d="M25,14v4H16.1l-.3-4Zm-4.6,8,.2,4H25V22Zm.4,6h-4l.3,5.5L25,36.1V31.9l-4.1-1.4Z"/><polygon class="e" points="25 6 25 44 11 40 8 6 25 6"/><path class="d" d="M25,14H15.9l.7,12H25V22H20.4l-.3-4H25ZM20.9,30.5,20.7,28h-4l.4,5.5L25,36.1V31.9Z"/></svg>