<svg xmlns="http://www.w3.org/2000/svg" xmlns:xlink="http://www.w3.org/1999/xlink" width="37" height="37" viewBox="0 0 37 37"><defs><style>.a{fill:#fff;}.b{clip-path:url(#a);}.c{fill:#007ab9;fill-rule:evenodd;}</style><clipPath id="a"><rect class="a" width="37" height="37" rx="18.5" transform="translate(0.122 0.382)"/></clipPath></defs><g transform="translate(-0.122 -0.382)"><rect class="a" width="37" height="37" rx="18.5" transform="translate(0.122 0.382)"/><g class="b" transform="translate(0)"><path class="c" d="M38.567,40.058V32.79c0-3.894-2.079-5.706-4.851-5.706a4.182,4.182,0,0,0-3.8,2.093v-1.8H25.705c.056,1.19,0,12.678,0,12.678h4.214v-7.08a2.881,2.881,0,0,1,.139-1.028,2.305,2.305,0,0,1,2.161-1.54c1.525,0,2.135,1.162,2.135,2.866v6.783Zm-17.3-14.407a2.2,2.2,0,1,0,.028-4.381,2.2,2.2,0,1,0-.055,4.381Zm2.107,14.407V27.381H19.16V40.058ZM9.5,12.667H46.736V49.9H9.5Z" transform="translate(-9.959 -12.667)"/></g></g></svg>