<svg xmlns="http://www.w3.org/2000/svg" width="37" height="37" viewBox="0 0 37 37"><defs><style>.a{fill:#fff;}.b{fill:none;}</style></defs><g transform="translate(-621.5 -881.691)"><rect class="a" width="37" height="37" rx="18.5" transform="translate(621.5 881.691)"/><g transform="translate(624.483 884.674)"><path class="b" d="M0,0H31.034V31.034H0Z"/><path d="M10.687,16.08a19.474,19.474,0,0,0,8.521,8.515l2.845-2.851a1.3,1.3,0,0,1,1.312-.317,14.72,14.72,0,0,0,4.616.737,1.289,1.289,0,0,1,1.293,1.293v4.526a1.289,1.289,0,0,1-1.293,1.293A21.981,21.981,0,0,1,6,7.293,1.293,1.293,0,0,1,7.293,6h4.526a1.289,1.289,0,0,1,1.293,1.293,14.72,14.72,0,0,0,.737,4.616,1.3,1.3,0,0,1-.317,1.312Z" transform="translate(-2.121 -2.121)"/></g></g></svg>