<svg xmlns="http://www.w3.org/2000/svg" viewBox="0 0 89.2 18.74"><defs><style>.a{fill:#fff;}</style></defs><path class="a" d="M5.4,10.63V29.37H94.6V10.63ZM21.8,27.39,17,24.86l-4.8,2.53L13.12,22,9.23,18.26l5.37-.78L17,12.61l2.4,4.87,5.37.78L20.88,22Zm16,0L33,24.86l-4.8,2.53L29.12,22l-3.89-3.78,5.37-.78L33,12.61l2.4,4.87,5.37.78L36.88,22Zm17,0L50,24.86l-4.8,2.53L46.12,22l-3.89-3.78,5.37-.78L50,12.61l2.4,4.87,5.37.78L53.88,22Zm17,0L67,24.86l-4.8,2.53L63.12,22l-3.89-3.78,5.37-.78L67,12.61l2.4,4.87,5.37.78L70.88,22Zm16,0L83,24.86l-4.8,2.53L79.12,22l-3.89-3.78,5.37-.78L83,12.61l2.4,4.87,5.37.78L86.88,22Z" transform="translate(-5.4 -10.63)"/></svg>