<svg xmlns="http://www.w3.org/2000/svg" viewBox="0 0 50 50"><defs><style>.a{fill:#212121;}.b{fill:none;stroke:#212121;stroke-miterlimit:10;stroke-width:2px;}</style></defs><path class="a" d="M36,9.5a5,5,0,0,1,5,5v21a5,5,0,0,1-5,5H14a5,5,0,0,1-5-5v-21a5,5,0,0,1,5-5H36m0-1H14a6,6,0,0,0-6,6v21a6,6,0,0,0,6,6H36a6,6,0,0,0,6-6v-21a6,6,0,0,0-6-6Z"/><path class="a" d="M42,15H8V14.5a6,6,0,0,1,6-6H36a6,6,0,0,1,6,6Z"/><rect class="b" x="13.22" y="17.39" width="9.93" height="7.61" rx="3"/><rect class="b" x="27.22" y="17.39" width="9.93" height="19.61" rx="3"/><rect class="b" x="13.22" y="29.39" width="9.93" height="7.61" rx="3"/></svg>