<svg xmlns="http://www.w3.org/2000/svg" viewBox="0 0 1105.57 1027"><defs><style>.a{fill:#ffe600;}</style></defs><polygon class="a" points="988.3 128.83 1105.57 156.49 988.3 184.15 963.12 312.98 937.94 184.15 820.68 156.49 937.94 128.83 963.12 0 988.3 128.83"/><polygon points="834.45 376.94 834.45 648.18 798.62 625.47 798.62 485.17 788.38 504.64 513.86 1027 382.13 776.33 360.94 736.04 271.65 566.13 81.51 204.29 21.17 319.08 0 278.81 60.32 164 60.32 163.98 81.49 123.72 102.66 164 314.01 566.13 382.13 695.75 403.3 736.04 513.86 946.41 767.91 463.01 770.18 458.69 652.91 533.07 620.61 512.57 810.85 391.89 834.45 376.94"/></svg>