<svg xmlns="http://www.w3.org/2000/svg" viewBox="0 0 198.7 186.24"><defs><style>.a{fill:#18c4ff;}.b{fill:#fff;}.c{stroke:#000;stroke-miterlimit:10;stroke-width:1.58px;}</style></defs><path d="M170.62,142.74c.52,7.82,3,15.89,6.67,24.17a45.42,45.42,0,0,0,2.9,5.3q3.38,5.59,7.24,10.87a13.31,13.31,0,0,1,2.63,4.82,4.76,4.76,0,0,1-.84,3.94.52.52,0,0,0,.1.74.47.47,0,0,0,.32.12l2.54.05a1.75,1.75,0,0,0,2-1.11c1-1.64,3.16-2.43,4.16-4.06a4,4,0,0,0,.76-2c0-.64-1.3-1.87-1.59-2.45a77.21,77.21,0,0,1-5.75-16.45c-1.14-4.46-4.73-8.56-6.41-12.85-2.11-5.41-1.39-11.46-1.63-17.27-.09-2.06-.36-4.25-1.67-5.83" transform="translate(-0.65 -6.88)"/><path d="M170.43,142.74a59,59,0,0,0,2.5,13.36c.69,2.31,1.49,4.59,2.38,6.84a57,57,0,0,0,3,6.67,127.47,127.47,0,0,0,7.89,12.28c1.28,1.78,2.89,3.57,3.49,5.73a4.86,4.86,0,0,1-.11,3,3.7,3.7,0,0,1-.33.66,3.22,3.22,0,0,0-.38.58.82.82,0,0,0,.29.93c.34.25.92.16,1.32.17l1.6,0a4.63,4.63,0,0,0,.91,0,1.83,1.83,0,0,0,1.15-.81,9.46,9.46,0,0,1,.79-1.09,9,9,0,0,1,1-.92,15,15,0,0,0,2.1-1.8,5,5,0,0,0,1.28-2.61c.06-.74-.53-1.36-1-1.91a6.25,6.25,0,0,1-.63-.83c-.23-.42-.42-.86-.62-1.29A72.88,72.88,0,0,1,193.2,171c-.3-1.07-.59-2.14-.87-3.22a25.36,25.36,0,0,0-.93-3.16,41.37,41.37,0,0,0-3-5.66,35.27,35.27,0,0,1-2.93-5.7,24.25,24.25,0,0,1-1.25-6.75c-.14-2.32-.1-4.65-.11-7a24.14,24.14,0,0,0-.53-6.52,7,7,0,0,0-1.33-2.58c-.24-.3-.67.13-.43.42,1.28,1.57,1.46,3.78,1.54,5.73.09,2.29,0,4.58.06,6.86a39.49,39.49,0,0,0,.57,6.69,21.55,21.55,0,0,0,2.15,6.07c1,1.87,2.13,3.63,3.16,5.47a26,26,0,0,1,1.4,2.79,20.71,20.71,0,0,1,1,3,89.31,89.31,0,0,0,3.55,11.16c.35.83.71,1.66,1.08,2.5.19.43.4.86.6,1.29a6.5,6.5,0,0,0,.54,1.05,9.63,9.63,0,0,1,1.32,1.81,1.73,1.73,0,0,1-.21,1.27,6.51,6.51,0,0,1-.77,1.27c-1.13,1.38-2.89,2.09-3.85,3.63-.27.43-.54.85-1.08.95a4.39,4.39,0,0,1-.81,0l-1.6,0c-.23,0-1.14.11-1-.33,0-.18.28-.39.37-.55a4.07,4.07,0,0,0,.33-.66,5.14,5.14,0,0,0,.34-1.39c.21-2.1-.92-4-2.09-5.66-1.36-1.92-2.75-3.82-4.06-5.77s-2.6-4-3.84-6a51.76,51.76,0,0,1-3.29-6.2c-1-2.23-1.85-4.48-2.67-6.76a68.8,68.8,0,0,1-3.33-13.16c-.15-1.07-.27-2.14-.35-3.21,0-.25-.39-.25-.38,0Z" transform="translate(-0.65 -6.88)"/><path d="M88,103.88a4,4,0,0,1-.91,2.86A162.36,162.36,0,0,1,74.75,119.4a3.07,3.07,0,0,0-1.16,2.09l-3.84,18.84a5.27,5.27,0,0,1-1.41,3.1c-1.11.91-2.71.74-4.12.53l-1.78-.27a1.36,1.36,0,0,1-1.09-.55c-.24-.49.18-1,.6-1.4A13.49,13.49,0,0,1,64,140.21a.84.84,0,0,0,.52-1q-.44-7-.16-14.11a22.11,22.11,0,0,1,1.11-7A20.77,20.77,0,0,1,67.14,115a74,74,0,0,1,7.92-10.72" transform="translate(-0.65 -6.88)"/><path d="M87.86,103.88a4,4,0,0,1-.45,2.07,9.71,9.71,0,0,1-1.4,1.74q-1.59,1.78-3.26,3.5c-2.22,2.28-4.51,4.48-6.8,6.67-.58.55-1.17,1.08-1.72,1.64a3.59,3.59,0,0,0-.92,1.83l-1,5-2,9.88c-.32,1.59-.6,3.2-1,4.78a5.1,5.1,0,0,1-.7,1.75,2.57,2.57,0,0,1-1.58,1,11.67,11.67,0,0,1-4.2-.28c-.5-.07-1.53-.16-1.16-.92a2.58,2.58,0,0,1,.7-.77c.29-.25.59-.48.9-.7s.62-.42.93-.61a1.12,1.12,0,0,0,.64-.75,4.1,4.1,0,0,0,0-1c0-.45,0-.9-.07-1.35-.08-1.69-.13-3.39-.15-5.08s0-3.33,0-5,.08-3.25.24-4.87A15.2,15.2,0,0,1,66,117.83a30.28,30.28,0,0,1,2.3-4.08,73.68,73.68,0,0,1,5.52-7.52c.5-.59,1-1.17,1.51-1.74.27-.3-.17-.74-.44-.44a73.62,73.62,0,0,0-5.91,7.6c-.9,1.32-1.77,2.67-2.56,4a15,15,0,0,0-1.76,4.47,28.28,28.28,0,0,0-.5,4.77c-.07,1.75-.11,3.49-.11,5.23s0,3.47.08,5.19c0,.86.06,1.73.11,2.59,0,.43,0,.86.07,1.3a.91.91,0,0,1,0,.46c-.1.17-.33.26-.49.36a15.26,15.26,0,0,0-1.86,1.36c-.47.41-1.06,1-.83,1.73s.94.77,1.52.85c.76.12,1.53.25,2.29.34a4.64,4.64,0,0,0,3.78-.78c1-.92,1.25-2.42,1.52-3.71q1-5.12,2.09-10.23l1.06-5.14.51-2.55a8.66,8.66,0,0,1,.26-1.12,2.47,2.47,0,0,1,.61-.92c1.12-1.15,2.32-2.23,3.47-3.35s2.38-2.31,3.53-3.5,2.27-2.36,3.37-3.57c.55-.62,1.09-1.24,1.63-1.88a6.77,6.77,0,0,0,1.23-1.77,4.33,4.33,0,0,0,.28-2c0-.21-.34-.21-.33,0Z" transform="translate(-0.65 -6.88)"/><path class="a" d="M158.37,7.38h-3.66a5.84,5.84,0,0,1,5.83,5.84V97.93a5.84,5.84,0,0,1-5.83,5.84h3.67a5.84,5.84,0,0,0,5.84-5.84V13.22a5.85,5.85,0,0,0-5.84-5.84Z" transform="translate(-0.65 -6.88)"/><path class="a" d="M158.37,6.88h-3.66a.5.5,0,0,0,0,1,5.44,5.44,0,0,1,5.34,5.36V97.71a5.58,5.58,0,0,1-1.44,3.87,5.38,5.38,0,0,1-3.9,1.7.5.5,0,0,0,0,1h2.66a9,9,0,0,0,3.18-.38,6.43,6.43,0,0,0,4.16-6V13.38a6.34,6.34,0,0,0-6.18-6.5h-.15a.5.5,0,0,0,0,1,5.43,5.43,0,0,1,5.35,5.36V97.44a6.67,6.67,0,0,1-.33,2.34,5.37,5.37,0,0,1-3.11,3.15,8.56,8.56,0,0,1-3.1.35h-2.48v1A6.39,6.39,0,0,0,161,98.72a10.85,10.85,0,0,0,.06-1.4v-84a6.35,6.35,0,0,0-6.24-6.46h-.1v1h3.67a.5.5,0,0,0,0-1Z" transform="translate(-0.65 -6.88)"/><path d="M51.11,103.28H14.86c-2.59,0-5.19,0-7.79,0a5.42,5.42,0,0,1-5.43-5.35V13.67A5.79,5.79,0,0,1,2.92,9.75,5.52,5.52,0,0,1,7.2,7.87H154.29a6.55,6.55,0,0,1,2.2.31,5.45,5.45,0,0,1,3.56,5.23V97.84a5.41,5.41,0,0,1-4.91,5.42c-1.68.14-3.41,0-5.1,0H90.7a.5.5,0,0,0,0,1h60.15c2,0,4.47.3,6.36-.52A6.44,6.44,0,0,0,161,97.84V18.11c0-1.6,0-3.21,0-4.81a6.48,6.48,0,0,0-6.69-6.42H7.06a6.44,6.44,0,0,0-5.62,3.3,7.09,7.09,0,0,0-.78,3.54V97.17a9.52,9.52,0,0,0,.16,2.2,6.42,6.42,0,0,0,6.24,4.9c2.6,0,5.21,0,7.81,0H51.12a.5.5,0,0,0,0-1Z" transform="translate(-0.65 -6.88)"/><path d="M154.71,7.38H7a5.84,5.84,0,0,0-5.84,5.84h0V14.4H160.54V13.22A5.84,5.84,0,0,0,154.71,7.38Z" transform="translate(-0.65 -6.88)"/><circle class="a" cx="9.12" cy="4.01" r="0.95"/><circle class="a" cx="15.89" cy="4.01" r="0.95"/><circle class="a" cx="22.66" cy="4.01" r="0.95"/><path class="a" d="M122.75,91.06c0,2,0,4-.06,6s0,4,0,6a.23.23,0,0,0,.23.23.23.23,0,0,0,.23-.23c.06-2,0-4,0-6s0-4-.05-6a.18.18,0,0,0-.2-.16.19.19,0,0,0-.16.16Z" transform="translate(-0.65 -6.88)"/><path class="a" d="M125.47,91.06c0,2,0,4,0,6s0,4,0,6a.23.23,0,1,0,.45,0c0-2,0-4,0-6s0-4-.05-6a.18.18,0,0,0-.2-.16.19.19,0,0,0-.16.16Z" transform="translate(-0.65 -6.88)"/><path class="a" d="M128.19,91.06c-.05,2,0,4-.05,6s0,4,0,6a.23.23,0,1,0,.45,0c.06-2,0-4,0-6s0-4-.05-6a.18.18,0,0,0-.36,0Z" transform="translate(-0.65 -6.88)"/><path d="M142.86,89.16H131l.49.5V84.31l-.49.49h11.87l-.49-.49v5.34a.5.5,0,0,0,1,0V84.31a.52.52,0,0,0-.5-.5H131a.51.51,0,0,0-.5.5v5.34a.51.51,0,0,0,.5.5h11.87a.5.5,0,0,0,0-1Z" transform="translate(-0.65 -6.88)"/><path class="a" d="M149,88.13H121.79a2,2,0,0,0-2,2h0v1.63H151V90.11a2,2,0,0,0-2-2Z" transform="translate(-0.65 -6.88)"/><path class="a" d="M149,87.63H121.79a2.53,2.53,0,0,0-2.15,1.23,4.13,4.13,0,0,0-.34,2.2v.68a.49.49,0,0,0,.49.49h27.38c1.26,0,2.52,0,3.78,0H151a.49.49,0,0,0,.49-.49c0-.59,0-1.19,0-1.77A2.52,2.52,0,0,0,149,87.63a.5.5,0,0,0,0,1,1.51,1.51,0,0,1,1.49,1.53v1.59l.5-.5H121.06c-.4,0-.82,0-1.22,0h0l.5.5V90.15a1.51,1.51,0,0,1,1.42-1.53c.31,0,.62,0,.94,0H145c1.33,0,2.66,0,4,0H149A.5.5,0,0,0,149,87.63Z" transform="translate(-0.65 -6.88)"/><path d="M153.89,88.13H146a2,2,0,0,1,2,2v1.63h7.92V90.11a2,2,0,0,0-2-2Z" transform="translate(-0.65 -6.88)"/><path d="M153.89,87.63H146a.5.5,0,0,0,0,1,1.51,1.51,0,0,1,1.49,1.53v1.59a.51.51,0,0,0,.5.49h7.92a.49.49,0,0,0,.49-.49c0-.59,0-1.19,0-1.77a2.51,2.51,0,0,0-2.47-2.34.5.5,0,0,0,0,1,1.51,1.51,0,0,1,1.49,1.53v1.59l.49-.5H148l.49.5c0-.59,0-1.19,0-1.77A2.52,2.52,0,0,0,146,87.63v1h7.92a.5.5,0,0,0,0-1Z" transform="translate(-0.65 -6.88)"/><path class="a" d="M119.79,101.5v6.91a2,2,0,0,0,2,2H149a2,2,0,0,0,2-2h0V101.5Z" transform="translate(-0.65 -6.88)"/><path class="a" d="M119.3,101.5v6.84a2.52,2.52,0,0,0,2.49,2.55H148.9a2.55,2.55,0,0,0,2.19-1.11,3.75,3.75,0,0,0,.42-2.23v-6a.51.51,0,0,0-.5-.5H123.63c-1.25,0-2.53,0-3.79,0h0a.5.5,0,0,0,0,1h30c.4,0,.81,0,1.21,0H151l-.5-.49v6.8a1.52,1.52,0,0,1-1.5,1.6H122a1.61,1.61,0,0,1-1.4-.62,3,3,0,0,1-.27-1.82v-6a.5.5,0,0,0-1,0Z" transform="translate(-0.65 -6.88)"/><path d="M148,101.5v6.91a2,2,0,0,1-2,2h7.91a2,2,0,0,0,2-2h0V101.5Z" transform="translate(-0.65 -6.88)"/><path d="M147.46,101.5v6.81A1.51,1.51,0,0,1,146,109.9a.5.5,0,0,0,0,1h7.25a5.68,5.68,0,0,0,1.09,0,2.49,2.49,0,0,0,2.06-2.44c0-1.07,0-2.14,0-3.2V101.5a.51.51,0,0,0-.49-.5H148a.5.5,0,0,0,0,1h7.92l-.5-.49v6.77a1.55,1.55,0,0,1-.89,1.51,2.71,2.71,0,0,1-1.1.12H146v1a2.51,2.51,0,0,0,2.47-2.33c0-.37,0-.75,0-1.12V101.5a.49.49,0,0,0-1,0Z" transform="translate(-0.65 -6.88)"/><path d="M149.69,91.06c-.05,2,0,4-.05,6s0,4,0,6a.23.23,0,0,0,.23.23.23.23,0,0,0,.23-.23c.05-2,0-4,0-6s0-4-.06-6a.18.18,0,0,0-.2-.16.17.17,0,0,0-.15.16Z" transform="translate(-0.65 -6.88)"/><path d="M152.42,91.06c-.06,2,0,4-.06,6s-.05,4,0,6a.23.23,0,0,0,.46,0c.05-2,0-4,0-6s0-4-.06-6a.18.18,0,0,0-.19-.16.18.18,0,0,0-.16.16Z" transform="translate(-0.65 -6.88)"/><path d="M155.13,91.06c0,2,0,4,0,6s-.05,4,0,6a.23.23,0,0,0,.23.23.23.23,0,0,0,.23-.23c.05-2,0-4,0-6s0-4-.06-6a.17.17,0,0,0-.18-.17.17.17,0,0,0-.17.17Z" transform="translate(-0.65 -6.88)"/><path class="a" d="M65.79,98.58l-5.86,2.55a41.22,41.22,0,0,0-8.7,4.63,9.9,9.9,0,0,0-3.63,4.55c-.73,2.21-.21,4.62.42,6.86a73,73,0,0,0,6.67,16.14c.51.9,1.05,2,.63,2.92-.19.41-.57.82-.47,1.27.13.62,1,.72,1.64.61a14,14,0,0,0,4.81-1.77,2.38,2.38,0,0,0,1.17-1.21,2.63,2.63,0,0,0-.24-1.64,49.87,49.87,0,0,1-3-15.28c-.07-1.92-.13-4.07-1.51-5.39-.21.27,0,.69.32.83a1.7,1.7,0,0,0,1,0,79,79,0,0,0,20.08-7" transform="translate(-0.65 -6.88)"/><path class="a" d="M65.74,98.39C63,99.56,60.16,100.72,57.4,102a29.76,29.76,0,0,0-7.1,4.17,10.46,10.46,0,0,0-2.44,2.82,7.64,7.64,0,0,0-1,3.88,17.79,17.79,0,0,0,.75,4.34c.4,1.43.82,2.77,1.28,4.14a72.28,72.28,0,0,0,3.29,8c.63,1.3,1.3,2.57,2,3.83a7.28,7.28,0,0,1,.89,1.92,1.67,1.67,0,0,1,0,.94c-.1.31-.31.56-.44.86A1,1,0,0,0,55,138.2a2.08,2.08,0,0,0,1.43.21,13.6,13.6,0,0,0,3.94-1.24c1-.51,2.54-1.2,2.44-2.59a8.72,8.72,0,0,0-.62-2.1c-.23-.68-.46-1.37-.66-2.06a49.84,49.84,0,0,1-1.76-8.73c-.15-1.42-.21-2.84-.28-4.27a9.91,9.91,0,0,0-.63-3.46,4.32,4.32,0,0,0-.93-1.37.32.32,0,0,0-.46,0l0,.06a1,1,0,0,0,.71,1.36,2.76,2.76,0,0,0,1.07-.07l1.18-.25c1.59-.35,3.18-.75,4.75-1.19a79.89,79.89,0,0,0,9.14-3.22c1.7-.72,3.36-1.49,5-2.32.39-.21,0-.79-.34-.59a78.88,78.88,0,0,1-16.81,6.25c-.81.2-1.62.39-2.44.56a7.69,7.69,0,0,1-1.18.23c-.2,0-.73-.12-.54-.42l-.5.06a5,5,0,0,1,1.28,3c.16,1.23.14,2.48.23,3.72a50.72,50.72,0,0,0,1.31,8.38c.34,1.38.74,2.75,1.19,4.1.21.64.5,1.28.67,1.94a1.41,1.41,0,0,1,0,1,1.79,1.79,0,0,1-.57.62A11.6,11.6,0,0,1,58,137.48a7.8,7.8,0,0,1-1.85.38c-.34,0-1,0-1-.47,0-.28.21-.55.33-.78a2.26,2.26,0,0,0,.3-.87,3.52,3.52,0,0,0-.42-1.85c-.27-.58-.62-1.16-.93-1.74s-.66-1.25-1-1.88a73.82,73.82,0,0,1-3.32-7.7c-.47-1.29-.91-2.6-1.31-3.92a34.2,34.2,0,0,1-1-4,9.12,9.12,0,0,1,.1-4.06,7.91,7.91,0,0,1,1.89-3.11,22.55,22.55,0,0,1,6.4-4.34c2.55-1.25,5.18-2.33,7.77-3.49l2-.88c.21-.09,0-.45-.16-.37Z" transform="translate(-0.65 -6.88)"/><path class="a" d="M143.8,37.24H57.14c-1.16,0-2.35-.07-3.51,0h-.15l.49.5V30.06l-.49.5h86.66c1.16,0,2.35.07,3.51,0h.15l-.49-.5v7.69a.5.5,0,0,0,1,0V30.06a.49.49,0,0,0-.5-.49H57.14c-1.16,0-2.34,0-3.51,0h-.15a.51.51,0,0,0-.5.49v7.69a.51.51,0,0,0,.5.49h86.66c1.17,0,2.34,0,3.51,0h.15a.5.5,0,0,0,0-1Z" transform="translate(-0.65 -6.88)"/><path class="a" d="M60.37,38.06H53.16l5.69-7.69h7.21Z" transform="translate(-0.65 -6.88)"/><path class="a" d="M73.27,38.06H66.06l5.7-7.69H79Z" transform="translate(-0.65 -6.88)"/><path class="a" d="M86.18,38.06H79l5.69-7.69h7.21Z" transform="translate(-0.65 -6.88)"/><path class="a" d="M99.08,38.06H91.87l5.69-7.69h7.21Z" transform="translate(-0.65 -6.88)"/><path class="a" d="M112,38.06h-7.21l5.7-7.69h7.21Z" transform="translate(-0.65 -6.88)"/><path class="a" d="M124.89,38.06h-7.21l5.69-7.69h7.21Z" transform="translate(-0.65 -6.88)"/><path class="a" d="M137.79,38.06h-7.21l5.69-7.69h7.21Z" transform="translate(-0.65 -6.88)"/><path d="M32.32,24.57l-11,19a2.15,2.15,0,0,0,.78,2.94,2.22,2.22,0,0,0,1.09.29h22a2.15,2.15,0,0,0,1.88-3.23l-11-19a2.16,2.16,0,0,0-2.94-.8A2.12,2.12,0,0,0,32.32,24.57Z" transform="translate(-0.65 -6.88)"/><path class="a" d="M30.78,22.5l-12.09,21a1.51,1.51,0,0,0,.55,2.07,1.45,1.45,0,0,0,.76.21H44.19a1.52,1.52,0,0,0,1.52-1.52,1.54,1.54,0,0,0-.2-.76l-12.1-21a1.53,1.53,0,0,0-2.07-.56A1.67,1.67,0,0,0,30.78,22.5Z" transform="translate(-0.65 -6.88)"/><path class="a" d="M133.16,192.5l-.52-2.15-1.42-5.82L129.14,176l-2.56-10.49-2.8-11.5L121,142.43l-2.63-10.78-2.23-9.14-1.6-6.56c-.25-1-.48-2.08-.76-3.11l0-.13a.5.5,0,0,0-.48-.37H93.08a.49.49,0,0,0-.47.63l.52,2.14,1.42,5.83,2.08,8.55L99.19,140l2.8,11.49L104.81,163l2.63,10.79,2.22,9.14,1.6,6.55c.25,1.05.48,2.09.76,3.11l0,.14c.15.62,1.11.36,1-.26l-.52-2.15-1.42-5.82L109,176l-2.56-10.49-2.8-11.5-2.82-11.57-2.62-10.78L96,122.51,94.35,116c-.25-1-.45-2.09-.75-3.11a.65.65,0,0,1,0-.13l-.48.62h20.16l-.47-.36.52,2.14,1.42,5.84,2.08,8.54L119.35,140l2.8,11.5L125,163l2.62,10.79,2.23,9.14,1.6,6.55c.25,1,.48,2.08.76,3.11l0,.14c.15.62,1.11.35.95-.27Z" transform="translate(-0.65 -6.88)"/><path class="a" d="M111.37,188.54H129c.81,0,1.64,0,2.45,0h0a.5.5,0,0,0,0-1H113.85c-.81,0-1.64,0-2.45,0h0a.5.5,0,0,0,0,1Z" transform="translate(-0.65 -6.88)"/><path class="a" d="M108.18,175.34h17.68c.81,0,1.64,0,2.45,0h0a.5.5,0,0,0,0-1H110.67c-.82,0-1.64,0-2.45,0h0A.5.5,0,0,0,108.18,175.34Z" transform="translate(-0.65 -6.88)"/><path class="a" d="M105,162.14h17.68c.81,0,1.63,0,2.45,0h0a.5.5,0,0,0,0-1H107.49c-.82,0-1.64,0-2.45,0h0A.5.5,0,0,0,105,162.14Z" transform="translate(-0.65 -6.88)"/><path class="a" d="M101.82,148.94h17.67c.82,0,1.64,0,2.46,0h0a.5.5,0,0,0,0-1H104.31c-.82,0-1.64,0-2.45,0h0A.5.5,0,0,0,101.82,148.94Z" transform="translate(-0.65 -6.88)"/><path class="a" d="M98.64,135.74h17.68c.81,0,1.63,0,2.45,0h0a.5.5,0,0,0,0-1H101.13c-.82,0-1.64,0-2.45,0h0a.5.5,0,0,0,0,1Z" transform="translate(-0.65 -6.88)"/><path class="a" d="M95.46,122.54h17.68c.81,0,1.63,0,2.45,0h0a.5.5,0,0,0,0-1H98c-.82,0-1.64,0-2.45,0h0a.5.5,0,0,0,0,1Z" transform="translate(-0.65 -6.88)"/><path d="M20.59,108.52H113.2v4.32H20.59Z" transform="translate(-0.65 -6.88)"/><path d="M113.2,112.34H24.35c-1.2,0-2.42-.08-3.61,0h-.15l.49.5v-4.32l-.49.49h88.85c1.19,0,2.42.08,3.6,0h.16l-.49-.49v4.32a.5.5,0,0,0,1,0v-4.32a.52.52,0,0,0-.5-.5H24.35c-1.2,0-2.41,0-3.61,0h-.15a.52.52,0,0,0-.5.5v4.32a.51.51,0,0,0,.5.49h88.85c1.2,0,2.41,0,3.6,0h.16a.5.5,0,0,0,0-1Z" transform="translate(-0.65 -6.88)"/><path d="M1.62,192.76l.52-2.14,1.42-5.84,2.09-8.54L8.2,165.75l2.8-11.5,2.82-11.56,2.63-10.78,2.23-9.15,1.59-6.55c.26-1,.57-2.07.76-3.11a.28.28,0,0,1,0-.13l-.48.36H40.75l-.48-.63-.52,2.14-1.42,5.84-2.08,8.54-2.56,10.49-2.8,11.5-2.82,11.56-2.63,10.79-2.22,9.14-1.6,6.55c-.25,1-.52,2.07-.76,3.11a.61.61,0,0,1,0,.13c-.15.63.8.89,1,.27l.52-2.14,1.42-5.84,2.09-8.54,2.55-10.49,2.8-11.5L34,142.69l2.63-10.79,2.23-9.14,1.59-6.55c.26-1,.53-2.07.76-3.11a.74.74,0,0,1,0-.14.51.51,0,0,0-.37-.61H20.59a.5.5,0,0,0-.48.36l-.52,2.14-1.42,5.84-2.08,8.54-2.56,10.49-2.8,11.5L7.91,162.77,5.28,173.56,3.06,182.7l-1.6,6.55c-.25,1-.52,2.07-.76,3.11l0,.13c-.15.63.8.89,1,.27Z" transform="translate(-0.65 -6.88)"/><path d="M22.47,187.55H4.79c-.81,0-1.63,0-2.45,0h0a.5.5,0,0,0,0,1H20c.82,0,1.64,0,2.45,0h0A.5.5,0,0,0,22.47,187.55Z" transform="translate(-0.65 -6.88)"/><path d="M25.65,174.35H8c-.82,0-1.64,0-2.46,0h0a.5.5,0,0,0,0,1H23.16c.82,0,1.64,0,2.46,0h0a.5.5,0,0,0,0-1Z" transform="translate(-0.65 -6.88)"/><path d="M28.83,161.15H11.15c-.82,0-1.64,0-2.46,0h0a.5.5,0,0,0,0,1H26.34c.82,0,1.64,0,2.46,0h0A.5.5,0,0,0,28.83,161.15Z" transform="translate(-0.65 -6.88)"/><path d="M32,148H14.34c-.82,0-1.64,0-2.46,0h0a.5.5,0,0,0,0,1H29.52c.82,0,1.64,0,2.45,0h0A.5.5,0,0,0,32,148Z" transform="translate(-0.65 -6.88)"/><path d="M35.19,134.75H17.51c-.81,0-1.63,0-2.45,0h0a.5.5,0,0,0,0,1H32.7c.82,0,1.64,0,2.45,0h0a.5.5,0,0,0,0-1Z" transform="translate(-0.65 -6.88)"/><path d="M38.37,121.55H20.7c-.82,0-1.64,0-2.46,0h0a.5.5,0,0,0,0,1H35.88c.82,0,1.64,0,2.46,0h0a.5.5,0,0,0,0-1Z" transform="translate(-0.65 -6.88)"/><path class="a" d="M92.44,108.52H113.2v4.32H92.44Z" transform="translate(-0.65 -6.88)"/><path class="a" d="M113.2,112.34H93.29c-.27,0-.55,0-.82,0h0l.49.5v-4.32l-.49.49h19.91a7.48,7.48,0,0,0,.82,0h0l-.49-.49v4.32a.5.5,0,0,0,1,0v-4.32a.52.52,0,0,0-.5-.5H95c-.83,0-1.68,0-2.52,0h0a.52.52,0,0,0-.5.5v4.32a.51.51,0,0,0,.5.49h18.21c.83,0,1.68,0,2.52,0h0a.5.5,0,0,0,0-1Z" transform="translate(-0.65 -6.88)"/><path class="b" d="M31.09,38.11a13.37,13.37,0,0,1-.82-4.81,4.29,4.29,0,0,1,.33-1.84A1.84,1.84,0,0,1,32,30.38a1,1,0,0,1,.77.23,1.52,1.52,0,0,1,.38.72,10.72,10.72,0,0,1-.5,6.54,1.26,1.26,0,0,1-.24.46.79.79,0,0,1-1.1,0" transform="translate(-0.65 -6.88)"/><path class="b" d="M31.26,38.06a13.66,13.66,0,0,1-.74-3.58c-.06-1-.16-2.43.55-3.29a1.37,1.37,0,0,1,1.24-.55c.59.11.67.87.77,1.36a9.64,9.64,0,0,1,0,3.43,13.85,13.85,0,0,1-.49,1.92,2,2,0,0,1-.37.84.51.51,0,0,1-.65,0c-.27-.25-.67.15-.4.4a1.08,1.08,0,0,0,1.46,0,2.09,2.09,0,0,0,.42-.81q.18-.54.33-1.08a10.87,10.87,0,0,0,.33-4.17,4.26,4.26,0,0,0-.54-1.93,1.34,1.34,0,0,0-1.54-.39c-1.28.45-1.58,1.9-1.58,3.1a13.83,13.83,0,0,0,.88,4.85c.08.21.42.13.35-.09Z" transform="translate(-0.65 -6.88)"/><path class="b" d="M32.42,40.39c-.79-.49-1.33,1-1.19,1.55a1.12,1.12,0,0,0,1.12.86c1.31-.11.87-1.91,0-2.32" transform="translate(-0.65 -6.88)"/><path class="b" d="M32.51,40.24a.76.76,0,0,0-.73-.09,1.15,1.15,0,0,0-.54.55,1.72,1.72,0,0,0-.16,1.6,1.34,1.34,0,0,0,1.8.63h0a1.21,1.21,0,0,0,.53-1.33,1.89,1.89,0,0,0-.94-1.38.31.31,0,0,0-.4.11.29.29,0,0,0,.11.4l.11.06.06,0c.05,0,0,0,0,0l.21.2s0,0,0,0l0,.06.09.14.06.13s0,0,0,0a.41.41,0,0,0,0,.08s0,.1,0,.15,0,0,0,.06,0,.09,0,0,0,0,0,0v.08a.33.33,0,0,1,0,.14.18.18,0,0,1,0,.06.74.74,0,0,1,0,.14h0l0,0,0,.05h0l0,0,0,0h0l-.13.07c.06,0,0,0,0,0l-.07,0-.07,0h0a.87.87,0,0,1-.86-.62.14.14,0,0,0,0-.06h0v-.3s0-.06,0-.08a3,3,0,0,1,.08-.32,1.37,1.37,0,0,1,.32-.53l0,0h0a.18.18,0,0,1,.07-.05l0,0h.16l.13.05a.18.18,0,0,0,.24-.06.17.17,0,0,0-.06-.24Z" transform="translate(-0.65 -6.88)"/><path class="a" d="M87,96.11c1.34,3.48,3.64,9.35-1.08,11.33a10.11,10.11,0,0,1-4,.59c-3.82,0-7.6,0-11.42-.46-2.8-.31-3.07-.31-4.75-3a7.07,7.07,0,0,1-.69-4.11c0-1.12-.2-2.46.8-3.26a3.55,3.55,0,0,1,2-.57q9.28-.6,18.62-.35" transform="translate(-0.65 -6.88)"/><path class="a" d="M86.85,96.15c.47,1.4,1,2.77,1.33,4.2a8,8,0,0,1,.07,4.32,4.54,4.54,0,0,1-3.56,2.85,17.53,17.53,0,0,1-3.62.21l-3.86-.06c-2.46-.06-4.92-.21-7.36-.5a6,6,0,0,1-1.7-.36A3.2,3.2,0,0,1,67,105.75a7.74,7.74,0,0,1-1.37-2.48,13.84,13.84,0,0,1-.16-3.22A3.35,3.35,0,0,1,66,97.59,2.28,2.28,0,0,1,67.35,97c.6-.07,1.22-.09,1.82-.13q7.72-.45,15.47-.31l1.91,0a.33.33,0,0,0,0-.65q-8.17-.23-16.34.21c-.67,0-1.35.07-2,.12a7.13,7.13,0,0,0-1.66.22,2.47,2.47,0,0,0-1.73,2.2,10.87,10.87,0,0,0,0,1.4c0,.56,0,1.12,0,1.68a7.88,7.88,0,0,0,.21,1.68,5.68,5.68,0,0,0,.71,1.54,9.73,9.73,0,0,0,1.39,1.85,3.22,3.22,0,0,0,1.51.75,20.32,20.32,0,0,0,2.57.34c1.37.13,2.74.21,4.11.27s2.67.07,4,.08,2.64.06,4,0c1.9-.12,4-.7,5-2.38a6.29,6.29,0,0,0,.64-4.36A21.48,21.48,0,0,0,87.56,97c-.13-.33-.27-.65-.41-1-.07-.17-.37,0-.31.13Z" transform="translate(-0.65 -6.88)"/><path d="M63.68,74.44c1.51.25,3,.45,4.54.67.71.11,1.41.26,2.11.35a1.48,1.48,0,0,0,1-.16,1.22,1.22,0,0,0,.34-.34,2.14,2.14,0,0,1,.32-.52c.28-.25.78-.19,1.13-.21l1.44,0c1,0,1.92,0,2.88.1.47,0,1,.06,1.43.11l.67.07a2.17,2.17,0,0,1,.66.11c.27.13.28.48.31.74a2.49,2.49,0,0,0,.19.89,1.23,1.23,0,0,0,.93.6c.51.1,1,.18,1.53.27q1.62.3,3.24.57c.34,0,.49-.46.14-.52-.94-.18-1.88-.34-2.83-.51l-1.41-.25c-.33-.06-.87-.07-1.07-.37a1.83,1.83,0,0,1-.17-.84,1.52,1.52,0,0,0-.29-.84,1.41,1.41,0,0,0-1-.39l-1.43-.15a39,39,0,0,0-5.72-.12,1.57,1.57,0,0,0-1,.31c-.28.23-.34.69-.66.86a1.66,1.66,0,0,1-1,.05l-1-.13c-1.73-.21-3.46-.43-5.19-.69-.22,0-.32.31-.1.35Z" transform="translate(-0.65 -6.88)"/><path d="M86.94,85.46c-.12,1.9-.11,3.8-.13,5.7,0,.93,0,1.86,0,2.79a28,28,0,0,0,0,2.9.24.24,0,0,0,.47,0c.08-1,0-1.94,0-2.9s0-1.86,0-2.79c0-1.9,0-3.8,0-5.7a.18.18,0,0,0-.18-.17.18.18,0,0,0-.17.17Z" transform="translate(-0.65 -6.88)"/><path d="M63.77,84.14a59.84,59.84,0,0,0,.77,10.78c.17,1,.37,2,.61,3a.25.25,0,0,0,.49-.13c-.36-1.75-.7-3.5-.94-5.27s-.41-3.58-.5-5.37c0-1-.07-2-.07-3a.18.18,0,0,0-.36,0Z" transform="translate(-0.65 -6.88)"/><path class="a" d="M64.84,100.54l-.18-4a1.09,1.09,0,0,1,.74-1.11c2.37-.8,4.79-1.88,5.88-4.12a11.72,11.72,0,0,0,.83-3.49A1.73,1.73,0,0,1,72.4,87a1.55,1.55,0,0,1,1.25-.38L80,86.5a1.1,1.1,0,0,1,.51.08,1,1,0,0,1,.42.49,25.41,25.41,0,0,1,1.12,3.14A4.71,4.71,0,0,0,84,92.82c1.14.63,2.81.57,3.33,1.78a3,3,0,0,1,.18.88l1,9" transform="translate(-0.65 -6.88)"/><path class="a" d="M65,100.54l-.06-2c0-.68-.1-1.37-.07-2a.89.89,0,0,1,.62-.8l1.07-.37a15.25,15.25,0,0,0,2-1,6.82,6.82,0,0,0,3-3.18,9.92,9.92,0,0,0,.62-2.58,4.83,4.83,0,0,1,.23-1.26,1,1,0,0,1,1-.46c2-.07,4-.06,6-.09.23,0,.47,0,.7,0s.39.2.51.43a9.77,9.77,0,0,1,.51,1.26A25.38,25.38,0,0,0,82,90.93a4.85,4.85,0,0,0,1.37,1.86,5.72,5.72,0,0,0,1.87.83,2.9,2.9,0,0,1,1.59.84,2,2,0,0,1,.33,1.09c.06.5.11,1,.16,1.49.22,2,.45,4,.67,6l.17,1.49c0,.4.66.4.62,0-.23-2.08-.46-4.18-.7-6.27-.11-1-.2-2-.35-3a2.16,2.16,0,0,0-1.12-1.72,12.83,12.83,0,0,0-1.92-.67A3.35,3.35,0,0,1,83,91.48a9.25,9.25,0,0,1-1-2.43c-.14-.45-.28-.89-.45-1.32a3.26,3.26,0,0,0-.62-1.18,1.55,1.55,0,0,0-1.21-.3l-1.56,0-3.18,0c-.5,0-1,0-1.49,0a1.92,1.92,0,0,0-1.09.31,1.58,1.58,0,0,0-.5,1c-.07.46-.12.92-.21,1.37a7,7,0,0,1-.85,2.59,6,6,0,0,1-1.55,1.68,11.07,11.07,0,0,1-2,1.14c-.37.17-.75.32-1.14.46a5.32,5.32,0,0,0-1.06.42c-.82.52-.61,1.5-.56,2.32s.11,1.81.17,2.7v.19c0,.22.36.22.35,0Z" transform="translate(-0.65 -6.88)"/><path class="a" d="M72.85,89a75.84,75.84,0,0,1-5.48-15l2.35.67a1.42,1.42,0,0,1,.66.33,1.33,1.33,0,0,1,.28.6A48,48,0,0,0,76.25,88" transform="translate(-0.65 -6.88)"/><path class="a" d="M73,88.88a75.63,75.63,0,0,1-4.46-11.56c-.33-1.12-.63-2.25-.91-3.39l-.35.36,1.75.51c.26.08.53.14.79.23a.73.73,0,0,1,.49.54c.33,1.06.65,2.12,1,3.17a47,47,0,0,0,2.71,6.12c.59,1.11,1.23,2.2,1.9,3.26.23.35.78,0,.56-.32a48.65,48.65,0,0,1-3.29-6.12c-.47-1.05-.91-2.11-1.31-3.2-.19-.53-.38-1.06-.55-1.6s-.31-1.11-.52-1.63-.76-.78-1.36-.94l-2-.58a.29.29,0,0,0-.35.21.2.2,0,0,0,0,.15,76.15,76.15,0,0,0,4.07,11.77c.48,1.09,1,2.16,1.51,3.22.11.22.44,0,.34-.2Z" transform="translate(-0.65 -6.88)"/><path class="a" d="M77.11,87.5A57.31,57.31,0,0,0,82,76.06l2.88.32a100.83,100.83,0,0,1-5.58,12.08" transform="translate(-0.65 -6.88)"/><path class="a" d="M77.26,87.59a54.25,54.25,0,0,0,4.13-8.8c.32-.87.62-1.76.9-2.65l-.26.2,2.88.34-.29-.38c-1.27,3.2-2.64,6.35-4.21,9.42-.45.87-.91,1.72-1.36,2.58-.2.37.36.7.56.33a90.18,90.18,0,0,0,4.49-9.42c.38-.91.75-1.83,1.09-2.75.08-.2-.11-.36-.28-.38L82,75.79a.27.27,0,0,0-.26.21A59.31,59.31,0,0,1,77,87.42a.17.17,0,1,0,.3.18h0Z" transform="translate(-0.65 -6.88)"/><path d="M73.15,76.22a40.05,40.05,0,0,0,8.39.68.21.21,0,0,0,0-.41,39.15,39.15,0,0,1-8.3-.61c-.22,0-.32.3-.1.34Z" transform="translate(-0.65 -6.88)"/><path d="M63.37,74l-2.53-.58-1.21-.26a3.25,3.25,0,0,0-1-.12c-.75.07-.95.73-1.15,1.35a21.66,21.66,0,0,0-1,7c0,.39,0,.78.06,1.16a3.38,3.38,0,0,0,.15,1c.25.69,1,.84,1.65,1a32.56,32.56,0,0,0,5.36,1.14c.3,0,.38-.49.07-.53a33.41,33.41,0,0,1-4.32-.88L58.42,84a4.23,4.23,0,0,1-.9-.33.87.87,0,0,1-.36-.75c0-.35-.06-.71-.08-1.07a22,22,0,0,1,.23-4.29q.16-1,.42-2.1c.08-.34.18-.69.29-1s.14-.65.39-.82.77-.06,1.09,0l1.22.23,2.55.47c.21,0,.31-.27.09-.32Z" transform="translate(-0.65 -6.88)"/><path d="M87.07,90.38a6.88,6.88,0,0,1,2.47,1.45,4,4,0,0,0,2.72.55,9.06,9.06,0,0,0,2.92-1,7.47,7.47,0,0,0,2.13-1.46A2.45,2.45,0,0,0,98,87.74a3.54,3.54,0,0,0-.62-1.28c-.33-.46-.68-.91-1-1.36A46.32,46.32,0,0,0,92.3,80a10,10,0,0,0-2.63-2,9.16,9.16,0,0,0-3.19-.93c-.38,0-.38.57,0,.61a8.8,8.8,0,0,1,5,2.24,30.59,30.59,0,0,1,3.8,4.54c.63.84,1.3,1.64,1.86,2.5a2.17,2.17,0,0,1,.41,1.25,1.82,1.82,0,0,1-.35,1,5.13,5.13,0,0,1-1.83,1.46,10.85,10.85,0,0,1-2.69,1.09,3.75,3.75,0,0,1-3-.45A5.53,5.53,0,0,0,87.12,90c-.2,0-.25.32-.05.35Z" transform="translate(-0.65 -6.88)"/><path d="M67.58,103.11c2,0,3.92.08,5.88.07.36,0,.36-.57,0-.55-2,.06-3.92.1-5.88.11a.18.18,0,0,0-.18.18.19.19,0,0,0,.18.19Z" transform="translate(-0.65 -6.88)"/><path d="M81.69,103.32a17.56,17.56,0,0,1,5,.63.27.27,0,0,0,.33-.2.27.27,0,0,0-.19-.33,15.34,15.34,0,0,0-5.18-.46.18.18,0,1,0,0,.35Z" transform="translate(-0.65 -6.88)"/><path d="M72.58,87s0,0,0-.08a.12.12,0,0,1,.1,0,2.26,2.26,0,0,1,.52,0l1.21.06c.31,0,.31-.47,0-.48l-1.53,0a.75.75,0,0,0-.59.21.44.44,0,0,0,0,.59c.14.15.42-.06.29-.23Z" transform="translate(-0.65 -6.88)"/><path d="M78.86,86.8l1.33.27a.23.23,0,0,0,.27-.16.23.23,0,0,0-.16-.27L79,86.46a.18.18,0,0,0-.22.12A.19.19,0,0,0,78.86,86.8Z" transform="translate(-0.65 -6.88)"/><path class="a" d="M69.11,119.13l2.47,1a.19.19,0,1,0,.1-.36l-2.48-1a.17.17,0,0,0-.09.33Z" transform="translate(-0.65 -6.88)"/><path class="a" d="M70,117.93c.88.35,1.75.73,2.61,1.13.2.11.39-.2.18-.31-.89-.42-1.79-.8-2.71-1.14-.21-.08-.29.24-.09.32Z" transform="translate(-0.65 -6.88)"/><path class="a" d="M73.34,119.31a.16.16,0,0,0,.14-.18.17.17,0,0,0-.14-.15.16.16,0,0,0-.15.18A.17.17,0,0,0,73.34,119.31Z" transform="translate(-0.65 -6.88)"/><path class="a" d="M68.85,113.57c3.88,0,7.76.08,11.63.1a.28.28,0,0,0,0-.56h0c-3.87,0-7.75.06-11.63.1a.18.18,0,1,0,0,.36Z" transform="translate(-0.65 -6.88)"/><path class="a" d="M61.91,143.13a21.82,21.82,0,0,1,3.32-.73,4.67,4.67,0,0,1,3,.64.21.21,0,0,0,.21-.36,4.71,4.71,0,0,0-3.15-.68,21.25,21.25,0,0,0-3.51.81.18.18,0,0,0-.12.21.16.16,0,0,0,.21.11Z" transform="translate(-0.65 -6.88)"/><path class="a" d="M64.54,135.36a7.71,7.71,0,0,1,2.95-.14,8.57,8.57,0,0,1,1.39.35c.23.08.46.17.68.27l.33.15.15.08c.11.06.06.08.11,0a.24.24,0,0,0,.42.24c.56-.78-2.17-1.37-2.61-1.44a8.31,8.31,0,0,0-3.51.17.17.17,0,0,0-.12.22.18.18,0,0,0,.21.12Z" transform="translate(-0.65 -6.88)"/><path class="a" d="M64.67,139.94a.17.17,0,0,0,.17-.17.17.17,0,0,0-.17-.18.18.18,0,0,0-.17.18A.18.18,0,0,0,64.67,139.94Z" transform="translate(-0.65 -6.88)"/><path d="M53.44,130.3a13.88,13.88,0,0,0,4-.59,12.13,12.13,0,0,0,1.83-.75,7.3,7.3,0,0,0,.87-.47c.24-.14.55-.29.62-.59s-.45-.5-.54-.15c0,.09-.21.18-.28.23l-.37.24a7.44,7.44,0,0,1-.78.44,11,11,0,0,1-1.73.66,14.81,14.81,0,0,1-3.62.6.18.18,0,0,0-.16.21A.18.18,0,0,0,53.44,130.3Z" transform="translate(-0.65 -6.88)"/><path d="M45.66,58.61c.27.38.53.77.77,1.16v-.23a2.27,2.27,0,0,0-.24,2,2,2,0,0,0,.56.88c.27.26.62.47.72.86a5,5,0,0,1,0,1.29l0,1.46c0,.95,0,1.91,0,2.86a24.63,24.63,0,0,0,.7,5.48,6.43,6.43,0,0,0,2.42,3.84,10.5,10.5,0,0,0,2.58,1.1c1.06.34,2.12.72,3.19,1,.37.1.5-.44.16-.57-.87-.32-1.77-.58-2.65-.87A16.78,16.78,0,0,1,51.54,78a5.34,5.34,0,0,1-2.65-3.47c-1-3.41-.83-7.09-.83-10.59a2.36,2.36,0,0,0-.21-1.21c-.21-.36-.56-.53-.84-.83a1.87,1.87,0,0,1-.18-2.15.21.21,0,0,0,0-.27c-.28-.35-.54-.71-.81-1.08-.14-.18-.45,0-.32.19Z" transform="translate(-0.65 -6.88)"/><path d="M50.07,56.08a4.58,4.58,0,0,1,.78,2.29.25.25,0,0,0,.49,0,4.67,4.67,0,0,0-1-2.5c-.13-.16-.4.05-.29.22Z" transform="translate(-0.65 -6.88)"/><path d="M52.19,58.58c.07,1.48-.83,2.8-.9,4.27a7.31,7.31,0,0,0,.34,2.27c.24.81.51,1.6.76,2.41s.47,1.52.74,2.27a7.26,7.26,0,0,0,.89,2,3,3,0,0,0,1.4.84c.45.16.9.3,1.36.42a15.69,15.69,0,0,0,3.27.59c.32,0,.32-.5,0-.51a14,14,0,0,1-2.74-.48c-.48-.12-1-.24-1.41-.39a5,5,0,0,1-1.23-.55,1.82,1.82,0,0,1-.52-.74,11.9,11.9,0,0,1-.45-1.12c-.26-.71-.48-1.44-.71-2.16l-.72-2.28a8.85,8.85,0,0,1-.49-2.27c-.07-1.58.9-3,.8-4.56,0-.24-.39-.24-.38,0Z" transform="translate(-0.65 -6.88)"/><path d="M48.28,56.27a4.51,4.51,0,0,1,.6,1.41.2.2,0,0,0,.38-.09v0a4.2,4.2,0,0,0-.68-1.47.18.18,0,0,0-.23-.07.18.18,0,0,0-.06.24Z" transform="translate(-0.65 -6.88)"/><path d="M47.26,57l-.11.18h-.06a0,0,0,0,1,0,0h0l0,0a.43.43,0,0,1,0,.07l.18.3.36.59a.21.21,0,1,0,.4-.12.41.41,0,0,0,0-.09l-.5-.78c-.08-.12-.15-.29-.31-.33a.27.27,0,0,0-.2,0,.21.21,0,0,0-.07.27.17.17,0,0,0,.21.08.19.19,0,0,0,.1-.21Z" transform="translate(-0.65 -6.88)"/><path d="M82.31,65l.13,2.63.07,1.29c0,.26.13,1-.32,1a.25.25,0,0,0-.25.25,5,5,0,0,1-.75,2.6,2.1,2.1,0,0,1-.92.7c-.42.13-.84,0-1.24.19s0,.6.27.46A2.59,2.59,0,0,1,80,74a1.79,1.79,0,0,0,.6-.17,2.74,2.74,0,0,0,1-.85,5.58,5.58,0,0,0,.81-2.86l-.25.26c1.1,0,.79-1.51.73-2.16L82.66,65c0-.22-.36-.22-.35,0Z" transform="translate(-0.65 -6.88)"/><path d="M164.68,99.33l-1.62,2.94c-.33.6-1.16,1.8-.13,2.22l-.18-.32a5.45,5.45,0,0,0-.37,3.08,2.68,2.68,0,0,0,.6,1.08,2,2,0,0,0,.48.38,1.92,1.92,0,0,1,.61.34c.22.26.59-.11.37-.37s-.67-.34-1-.59a1.91,1.91,0,0,1-.59-1,4.83,4.83,0,0,1,.35-2.8.25.25,0,0,0-.18-.31c-.36-.15,0-.8.14-1l.59-1.15L165,99.51c.1-.2-.19-.38-.3-.18Z" transform="translate(-0.65 -6.88)"/><path d="M82.61,64.35a8.53,8.53,0,0,1-2.25,4.05c.16-.48-.51-.78-.82-.39a2.41,2.41,0,0,0-.41,2.15,1.13,1.13,0,0,1,.09.6c-.08.27-.37.39-.63.5a7.43,7.43,0,0,0-3.9,4.22c-.84,2-1.25,4.3-3.25,5.54a6.3,6.3,0,0,1-3.5.68c-2.2,0-4.27,1.13-6.48.91a5.27,5.27,0,0,1-4.23-3.23A6.35,6.35,0,0,1,57.62,74c1.12-2,2.94-2.75,5.13-3a7.22,7.22,0,0,0,2.78-.66,12.12,12.12,0,0,0,2-1.83,12,12,0,0,1,3-1.51c1-.47,1.21-1.63,1.74-2.46a5,5,0,0,1,3.41-2.05,15.07,15.07,0,0,1,4.08,0c1.16.12,2.57.42,2.91,1.54" transform="translate(-0.65 -6.88)"/><path d="M82.44,64.3a8.64,8.64,0,0,1-2.24,3.94l.38.23a.67.67,0,0,0-.44-.84h0c-.5-.13-.81.28-1,.68a2.72,2.72,0,0,0-.26,1.61c0,.23.25.62.12.84s-.49.28-.69.37a8.27,8.27,0,0,0-4,4.77c-.74,1.9-1.34,4.2-3.42,5.09-1.18.5-2.43.29-3.67.42s-2.47.53-3.71.75A5.39,5.39,0,0,1,60,81.84a5.14,5.14,0,0,1-2.23-2.1,5.91,5.91,0,0,1,.77-6.52A5.12,5.12,0,0,1,61,71.69a28.08,28.08,0,0,1,3.26-.55,4.91,4.91,0,0,0,1.69-.65,7.29,7.29,0,0,0,1.25-1.17,5.24,5.24,0,0,1,1.33-1.11c.52-.27,1.08-.46,1.62-.69a3,3,0,0,0,1.28-.88,6.55,6.55,0,0,0,.74-1.28A4.48,4.48,0,0,1,73,64.07a4.66,4.66,0,0,1,1.4-.92,8.36,8.36,0,0,1,3.78-.49c.64,0,1.29.08,1.92.18a4.64,4.64,0,0,1,1.37.37,1.57,1.57,0,0,1,.88.92c.12.36.7.2.58-.16a2.7,2.7,0,0,0-2.23-1.61,14.74,14.74,0,0,0-1.77-.2,16.16,16.16,0,0,0-2.09-.08,6.85,6.85,0,0,0-3.51,1,4.76,4.76,0,0,0-1.24,1.17,10.69,10.69,0,0,0-.73,1.33,2.6,2.6,0,0,1-.9,1.1,12.44,12.44,0,0,1-1.68.71,5.29,5.29,0,0,0-1.51.91c-.44.4-.81.88-1.25,1.29a5.44,5.44,0,0,1-3.37,1.11,8.28,8.28,0,0,0-3,.82,6.38,6.38,0,0,0-3.22,5.61,5.86,5.86,0,0,0,3.45,5.45,6.24,6.24,0,0,0,3.55.3c1.29-.21,2.54-.68,3.85-.79.62,0,1.25,0,1.87,0a6,6,0,0,0,1.83-.4,5.18,5.18,0,0,0,2.4-2.2,17.33,17.33,0,0,0,1.23-3,10.92,10.92,0,0,1,1.48-2.93,6.46,6.46,0,0,1,2.54-2c.49-.22.93-.5.8-1.12a4.34,4.34,0,0,1-.18-.87,2.21,2.21,0,0,1,.18-.91c.08-.17.21-.52.43-.55a.22.22,0,0,1,.26.17.14.14,0,0,1,0,.11.24.24,0,0,0,.17.29.23.23,0,0,0,.22-.06A8.86,8.86,0,0,0,82.8,64.4a.18.18,0,0,0-.35-.1Z" transform="translate(-0.65 -6.88)"/><path class="a" d="M82.45,65a41,41,0,0,1-10.6-.84,8.5,8.5,0,0,1,.88-2.9,5.06,5.06,0,0,1,3.07-2.23,8,8,0,0,1,3.86,0,4.63,4.63,0,0,1,3.12,2c.51.9.55,2.08,1.32,2.78.16.15.37.29.43.51s-.3.66-.66.72a9.81,9.81,0,0,0-1.09.08" transform="translate(-0.65 -6.88)"/><path class="a" d="M82.45,64.84c-1.76,0-3.52,0-5.28-.14a40.38,40.38,0,0,1-5.24-.78l.19.35a6.44,6.44,0,0,1,1.5-3.63,5.41,5.41,0,0,1,3.47-1.48,7.72,7.72,0,0,1,4,.73A3.33,3.33,0,0,1,82.39,61,6,6,0,0,1,83,62.58a3.68,3.68,0,0,0,1,1.61c.08.07.21.16.16.28s-.23.21-.36.25c-.37.09-.77,0-1.15.11s-.21.66.16.58.78,0,1.17-.07a1.15,1.15,0,0,0,.74-.55c.38-.72-.46-1.09-.77-1.6a11.67,11.67,0,0,1-.71-1.84,3.63,3.63,0,0,0-1.17-1.54A7.46,7.46,0,0,0,78,58.52a6.46,6.46,0,0,0-4.28,1.23,4.8,4.8,0,0,0-1.46,1.82,10.61,10.61,0,0,0-.65,2.55.28.28,0,0,0,.21.34,41.18,41.18,0,0,0,5.3.73,30.1,30.1,0,0,0,5.37,0,.17.17,0,0,0,.16-.19.18.18,0,0,0-.16-.15Z" transform="translate(-0.65 -6.88)"/><path d="M97.48,89.11A6.52,6.52,0,0,0,101,90.3c1.51.14,3,.13,4.57.18l4.86.16a30.86,30.86,0,0,1,4.3.29c1.27.22,3.07.94,3.1,2.48,0,.25.4.32.44.07.21-1.36-1.13-2.34-2.25-2.76a13.38,13.38,0,0,0-4-.54c-3.34-.14-6.67-.21-10-.32a7.59,7.59,0,0,1-4.31-1c-.16-.12-.38.16-.22.29Z" transform="translate(-0.65 -6.88)"/><path d="M90.32,92.15a21.48,21.48,0,0,0,2,1.79,14.7,14.7,0,0,0,1.86,1.29,11.79,11.79,0,0,0,4.11,1.4c3.91.56,7.77-.38,11.6-1l1.62-.26a2.37,2.37,0,0,1,1.42,0c.49.28.43.89.46,1.37s.59.37.57,0a3,3,0,0,0-.23-1.32,1.43,1.43,0,0,0-.74-.63,2.73,2.73,0,0,0-1.24,0c-2,.27-4,.68-5.93,1-3.49.58-7.36.93-10.66-.62A14.15,14.15,0,0,1,93,93.83c-.85-.6-1.61-1.29-2.42-1.94-.18-.15-.44.08-.27.26Z" transform="translate(-0.65 -6.88)"/><path d="M115.16,95.12a1.68,1.68,0,0,1,0,1.21.2.2,0,0,0,.14.25.21.21,0,0,0,.25-.14,2,2,0,0,0-.09-1.46.18.18,0,0,0-.33.13Z" transform="translate(-0.65 -6.88)"/><path d="M116.38,94.19l.05,0,0,0,.08.12.06.11s0,0,0,0,0,0,0,0,0,0,0,.07a.61.61,0,0,1,0,.13.14.14,0,0,1,0,.07h0v.27a.21.21,0,0,0,.18.24.22.22,0,0,0,.25-.18h0a1.49,1.49,0,0,0-.47-1.19.18.18,0,0,0-.25,0,.17.17,0,0,0,0,.23Z" transform="translate(-0.65 -6.88)"/><path class="b" d="M72.47,62.54a33.17,33.17,0,0,0,11,.24c.28,0,.16-.47-.12-.42a34.08,34.08,0,0,1-10.76-.19c-.24,0-.34.32-.1.37Z" transform="translate(-0.65 -6.88)"/><path class="b" d="M73.75,62.45a5.84,5.84,0,0,1,.62-1.66,7,7,0,0,1,1.09-1.4.2.2,0,0,0,0-.28.2.2,0,0,0-.27,0,5.49,5.49,0,0,0-1.13,1.49,6,6,0,0,0-.61,1.76c0,.21.27.3.32.09Z" transform="translate(-0.65 -6.88)"/><path class="b" d="M76.19,62a4.67,4.67,0,0,1,2.23-2.91c.2-.09.13-.44-.1-.36-1.37.47-2,1.94-2.47,3.17-.09.21.25.31.34.1Z" transform="translate(-0.65 -6.88)"/><path class="b" d="M72.31,91.1c3.22-.46,6.47.27,9.7.09.28,0,.28-.45,0-.43-3.26.27-6.53-.48-9.79,0-.22,0-.13.37.09.34Z" transform="translate(-0.65 -6.88)"/><path class="b" d="M63.37,100.7a5.84,5.84,0,0,0,.51,3.37c.11.23.44,0,.34-.21a5.87,5.87,0,0,1-.51-3.12c0-.2-.31-.25-.34,0Z" transform="translate(-0.65 -6.88)"/><path class="a" d="M168.36,103a5.41,5.41,0,0,1,.15-3.86,10.89,10.89,0,0,1-3.9.17,2.14,2.14,0,0,1-1-.28.85.85,0,0,1-.4-.85.53.53,0,0,1,.78-.32.76.76,0,0,1-.15-1.15,1.72,1.72,0,0,1,1.21-.51,5.81,5.81,0,0,1,3.93,1.1,2.51,2.51,0,0,1,2.1.44,5.7,5.7,0,0,1,2.2,1.73,3.93,3.93,0,0,1,.14,3.64,11.94,11.94,0,0,1-2.17,3.08,1.88,1.88,0,0,1-1,.71c-.7.12-1.28-.58-1.48-1.25a2.64,2.64,0,0,0,1.22-1.25,1.6,1.6,0,0,0-.21-1.67,1.17,1.17,0,0,0-1.59-.18" transform="translate(-0.65 -6.88)"/><path class="a" d="M168.54,102.92a5.6,5.6,0,0,1,.2-3.68.25.25,0,0,0-.1-.35.28.28,0,0,0-.18,0,10.46,10.46,0,0,1-3.25.21,2.9,2.9,0,0,1-1.4-.3c-.16-.12-.35-.36-.26-.57a.25.25,0,0,1,.31-.16l0,0,.28-.48A.44.44,0,0,1,164,97a.93.93,0,0,1,.72-.51,4.67,4.67,0,0,1,2.07,0,5.47,5.47,0,0,1,1.94.86.45.45,0,0,0,.44.1,1.34,1.34,0,0,1,.52-.07,3.21,3.21,0,0,1,1.13.42c1.21.64,2.46,1.39,2.69,2.86a5.24,5.24,0,0,1-1.3,3.91c-.24.32-.5.62-.76.92a5,5,0,0,1-.83.88c-.7.5-1.32-.27-1.51-.9l-.13.31a2.45,2.45,0,0,0,1.42-2.69,1.49,1.49,0,0,0-2.32-.84c-.26.21.12.59.38.38a.86.86,0,0,1,1,0,1.06,1.06,0,0,1,.52.86,2.06,2.06,0,0,1-1.23,1.85.28.28,0,0,0-.13.31c.3.93,1.24,1.9,2.26,1.28a5.74,5.74,0,0,0,1.19-1.22,15,15,0,0,0,1.14-1.49,5.56,5.56,0,0,0,.95-3.2,3.65,3.65,0,0,0-1.56-2.8,10.29,10.29,0,0,0-1.69-1A2.37,2.37,0,0,0,169,97l.21,0a6,6,0,0,0-4.06-1.13,1.86,1.86,0,0,0-1.56.8,1,1,0,0,0,.35,1.38.29.29,0,0,0,.38-.13.27.27,0,0,0-.1-.35.8.8,0,0,0-1.19.56,1.26,1.26,0,0,0,1,1.31,8.89,8.89,0,0,0,2.24.19,9.87,9.87,0,0,0,2.3-.3l-.31-.31a5.32,5.32,0,0,0-.09,4,.19.19,0,0,0,.23.13.19.19,0,0,0,.13-.23h0Z" transform="translate(-0.65 -6.88)"/><path d="M168.43,103a.81.81,0,0,1,.75-.14.83.83,0,0,1,.59.52,1.16,1.16,0,0,1,0,.86,1.31,1.31,0,0,1-.67.64,1.71,1.71,0,0,1-.49.14,1.31,1.31,0,0,1-.28,0h-.08c-.06,0,0,0,0,0a.27.27,0,0,0-.33-.19.27.27,0,0,0-.19.33c.18.5.86.42,1.27.29a1.94,1.94,0,0,0,1.11-.79,1.72,1.72,0,0,0,.21-1.31,1.31,1.31,0,0,0-.85-.89,1.22,1.22,0,0,0-1.25.27c-.16.16.08.38.24.24Z" transform="translate(-0.65 -6.88)"/><path d="M168.42,104l.39-.18a.15.15,0,0,0,.08-.11.23.23,0,0,0,0-.14.23.23,0,0,0-.11-.08.2.2,0,0,0-.13,0l-.38.19a.18.18,0,0,0-.08.11.2.2,0,0,0,0,.13.18.18,0,0,0,.1.07.2.2,0,0,0,.13,0Z" transform="translate(-0.65 -6.88)"/><path d="M165,100.94a3.06,3.06,0,0,1,.43.13h0l0,0,.05,0,.09,0,.21.1a.21.21,0,0,0,.26-.14.21.21,0,0,0-.05-.2,1.92,1.92,0,0,0-.46-.21,2.66,2.66,0,0,0-.49-.1.17.17,0,0,0-.17.17.17.17,0,0,0,.12.16Z" transform="translate(-0.65 -6.88)"/><path d="M165,102h-.05l-.09,0h0l0,0-.06.08,0,0,0,.1a.19.19,0,0,0,0,.21l.09,0a.24.24,0,0,0,.12,0l.06,0,.06,0a.19.19,0,0,0,.06-.07.36.36,0,0,0,0-.09v-.1a.23.23,0,0,0-.06-.16l-.07,0h-.15l-.1,0,0,.05a.2.2,0,0,0,0,.11v0s0,0,0,0l0,0,0,0,0,0,0,0,0,0,.32.19v0a.29.29,0,0,1,0-.09l0,0,0,0v0a.19.19,0,0,0,0-.1.22.22,0,0,0,0-.08l0,0A.18.18,0,0,0,165,102Z" transform="translate(-0.65 -6.88)"/><path d="M164.29,105.56a1.24,1.24,0,0,0,.78-.28.16.16,0,0,0,0-.23.17.17,0,0,0-.23,0l-.14.09-.08,0h0l-.16,0h-.14a.18.18,0,0,0-.19.15.17.17,0,0,0,.15.19h0Z" transform="translate(-0.65 -6.88)"/><path d="M164.14,108.84a8.81,8.81,0,0,1,.45,1,5.52,5.52,0,0,1,.16.54,2.61,2.61,0,0,1,.06.27.14.14,0,0,1,0,.09h0s0,0,0,0c-.15.15,0,.46.2.37a.42.42,0,0,0,.23-.56c-.06-.22-.13-.45-.21-.67a5.06,5.06,0,0,0-.63-1.25.17.17,0,0,0-.24,0,.19.19,0,0,0-.05.21Z" transform="translate(-0.65 -6.88)"/><path d="M164.82,111.3c0-.21.22-.27.38-.36l.5-.24c.35-.16.7-.32,1.06-.46.72-.28,1.45-.52,2.18-.75a19.69,19.69,0,0,1,2.25-.61c.33,0,.89-.16,1.17.07a2.44,2.44,0,0,1,.51,1c.1.24.52.24.5-.07a2.33,2.33,0,0,0-.48-1.21,1.26,1.26,0,0,0-1.13-.43,10.69,10.69,0,0,0-2.83.66,22.83,22.83,0,0,0-2.63.93,12,12,0,0,0-1.23.66c-.31.2-.65.36-.59.77,0,.21.35.23.34,0Z" transform="translate(-0.65 -6.88)"/><path d="M165.75,111a18.58,18.58,0,0,0-5.58,1.74c-.93.44-1.83.93-2.73,1.43a6.64,6.64,0,0,0-2.12,1.5,2.69,2.69,0,0,0-.27,2.51,9.39,9.39,0,0,0,1.3,2.49,11.51,11.51,0,0,0,1.83,2.11,3.72,3.72,0,0,0,2.35,1.08,3.37,3.37,0,0,0,1.45-.42c.52-.25,1-.53,1.54-.8,1.09-.57,2.23-1.09,3.28-1.73a.24.24,0,1,0-.24-.41c-.91.4-1.79.89-2.67,1.35l-1.33.68a11.11,11.11,0,0,1-1.25.61c-1.71.62-3.18-1.08-4.11-2.29a12.46,12.46,0,0,1-1.35-2.24,2.69,2.69,0,0,1-.18-2.43,4.88,4.88,0,0,1,1.9-1.42c.79-.45,1.59-.89,2.4-1.31a19.9,19.9,0,0,1,5.83-2.12c.19,0,.15-.36,0-.34Z" transform="translate(-0.65 -6.88)"/><path d="M129.56,107.17c.86,2.37,3.39,3.22,5.17,4.73a15,15,0,0,1,2.44,2.83c.71,1,1.41,2,2.17,3a32,32,0,0,0,5.16,5.44,15,15,0,0,0,3.12,2,9.6,9.6,0,0,0,3.72.87,13.48,13.48,0,0,0,4.23-.69,17,17,0,0,0,4.14-1.77.31.31,0,0,0,.11-.43.31.31,0,0,0-.43-.12h0a24.76,24.76,0,0,1-3.59,1.55,14.75,14.75,0,0,1-3.65.77,9.11,9.11,0,0,1-3.62-.53,12.27,12.27,0,0,1-3.17-1.84,31,31,0,0,1-5.12-5.12c-.78-1-1.5-1.94-2.21-2.94a22.9,22.9,0,0,0-2.24-2.78,19.08,19.08,0,0,0-3.26-2.36,6.18,6.18,0,0,1-2.62-2.78c-.08-.21-.42-.12-.35.09Z" transform="translate(-0.65 -6.88)"/><path d="M130.12,105.23a4.24,4.24,0,0,0,1.45,2,.21.21,0,0,0,.28-.07h0a.21.21,0,0,0-.07-.29h0a4,4,0,0,1-1.31-1.69.18.18,0,0,0-.35.09Z" transform="translate(-0.65 -6.88)"/><path d="M131.5,104a3.14,3.14,0,0,0,1.42,1.92c.22.14.43-.21.2-.36a2.9,2.9,0,0,1-1.27-1.66.18.18,0,0,0-.24-.11.18.18,0,0,0-.11.21Z" transform="translate(-0.65 -6.88)"/><path d="M133.37,103.52a7.27,7.27,0,0,0,1.91,1.67.23.23,0,0,0,.31-.1.21.21,0,0,0-.08-.29,9,9,0,0,1-1.9-1.52.17.17,0,0,0-.24,0,.16.16,0,0,0,0,.24,0,0,0,0,0,0,0Z" transform="translate(-0.65 -6.88)"/><path d="M136.48,104a6.5,6.5,0,0,1,1.39,1.74,15.06,15.06,0,0,1,.81,2.15,5,5,0,0,0,1.41,1.83c.58.55,1.23,1.12,1.88,1.65a42.69,42.69,0,0,0,4,2.94c1.48,1,3,1.86,4.53,2.77a5.18,5.18,0,0,0,1.24.68,1.81,1.81,0,0,0,1.21-.13c.43-.19.83-.43,1.25-.65l1.37-.74a.26.26,0,0,0-.26-.45c-.76.39-1.5.84-2.26,1.23a1.78,1.78,0,0,1-1.14.27,4.44,4.44,0,0,1-1.07-.59c-1.46-.89-2.93-1.75-4.37-2.67a40,40,0,0,1-4-2.88c-.62-.51-1.22-1-1.81-1.57a5.27,5.27,0,0,1-1.5-1.79,16.61,16.61,0,0,0-.9-2.26,6.56,6.56,0,0,0-1.57-1.79c-.19-.14-.45.11-.26.26Z" transform="translate(-0.65 -6.88)"/><path d="M119.79,95.68h35.52v2.06H119.79Z" transform="translate(-0.65 -6.88)"/><path d="M155.31,97.24H121.23c-.46,0-.92,0-1.38,0h-.06l.5.5V95.68l-.5.5h34.08c.46,0,.93,0,1.39,0h.05l-.49-.5v2.06a.5.5,0,0,0,1,0V95.68a.49.49,0,0,0-.5-.49H124.16c-1.44,0-2.88,0-4.31,0h-.06a.49.49,0,0,0-.49.49v2.06a.49.49,0,0,0,.49.49H151c1.43,0,2.87,0,4.3,0h.06a.5.5,0,0,0,0-1Z" transform="translate(-0.65 -6.88)"/><rect class="c" x="124.21" y="93.9" width="2.04" height="2.04" rx="0.32"/><rect class="c" x="138.85" y="93.9" width="2.04" height="2.04" rx="0.32"/><path d="M112.35,95.2a5.69,5.69,0,0,0-1.47,1.11l-1.46,1.37c-.41.39-.88.88-.8,1.45a1.2,1.2,0,0,0,.68.88,3,3,0,0,0,1.1.28.68.68,0,0,0,.82-.38l2-3a1.85,1.85,0,0,0,.31-.63,1,1,0,0,0-.81-1.12h-.12" transform="translate(-0.65 -6.88)"/><path d="M112.3,95a4.7,4.7,0,0,0-1.33.87l-1.37,1.25c-.68.64-1.72,1.55-1.06,2.56a2,2,0,0,0,1.26.79c.49.1,1.1.23,1.47-.18a4.63,4.63,0,0,0,.48-.68l.56-.83,1.06-1.6a1.6,1.6,0,0,0,.39-1.55,1.15,1.15,0,0,0-1.21-.76.25.25,0,0,0-.17.32.26.26,0,0,0,.17.17.8.8,0,0,1,.73.58c.09.42-.29.81-.5,1.13l-1.67,2.48c-.11.16-.22.41-.42.46A1.78,1.78,0,0,1,110,100a1.49,1.49,0,0,1-1-.58c-.48-.75.66-1.55,1.12-2a11.73,11.73,0,0,1,2.32-2c.18-.1,0-.42-.15-.35Z" transform="translate(-0.65 -6.88)"/><path d="M115.59,90.55a16.81,16.81,0,0,0,1.73-2,4.23,4.23,0,0,1,.94-1.15,1.1,1.1,0,0,1,1.37,0,1.06,1.06,0,0,1,.05,1.27,5.33,5.33,0,0,1-.9,1,5.63,5.63,0,0,0-1.06,1.46c-.07.13-.17.29-.32.26a.32.32,0,0,1-.18-.12,2.45,2.45,0,0,0-1.08-.62" transform="translate(-0.65 -6.88)"/><path d="M115.71,90.68a12.68,12.68,0,0,0,1.66-1.85c.39-.52.75-1.33,1.46-1.45a.62.62,0,0,1,.72.33,1,1,0,0,1-.16.87,4.93,4.93,0,0,1-.76.82,5.94,5.94,0,0,0-.76.9,4.73,4.73,0,0,0-.35.56c0,.08-.1.15-.14.23,0-.09.08,0,0,0a.57.57,0,0,0-.14-.13,2.22,2.22,0,0,0-1.13-.55.26.26,0,0,0-.13.48,4.73,4.73,0,0,1,.6.27,3.81,3.81,0,0,1,.5.4.5.5,0,0,0,.58,0,1.22,1.22,0,0,0,.36-.51,5.72,5.72,0,0,1,.82-1.13,9.55,9.55,0,0,0,.92-1c.42-.61.48-1.62-.3-2a1.74,1.74,0,0,0-2,.88c-.31.41-.58.86-.91,1.27s-.76.86-1.12,1.3a.18.18,0,0,0,0,.26.18.18,0,0,0,.24,0Z" transform="translate(-0.65 -6.88)"/><path d="M117.78,87.49c-.94,0-.2-1.42-.88-1.69-.29-.12-.56,0-.83.14a1.16,1.16,0,0,1-.78,0c-.78-.29-.21-1.25.07-1.73A3.35,3.35,0,0,1,117,82.57a1.18,1.18,0,0,1,1.12.16.75.75,0,0,1,.16.92.3.3,0,0,0,.12.39.32.32,0,0,0,.27,0,1.28,1.28,0,0,1,1.34.1c.44.25.83.57,1.3.79s.82.36,1,.8a1.09,1.09,0,0,1-.24,1.11.3.3,0,0,0,0,.41.32.32,0,0,0,.2.08,1.24,1.24,0,0,1,1.1,2c-.1.13-.28.28-.46.23s-.22-.18-.29-.29a2.25,2.25,0,0,0-1.35-1.07,2.08,2.08,0,0,0-1.73.28c-.32.22,0,.74.31.52a1.55,1.55,0,0,1,1.87.06c.29.24.4.61.68.86a.87.87,0,0,0,1,.09,1.8,1.8,0,0,0,.69-2.08,1.86,1.86,0,0,0-1.88-1.21l.21.49a1.66,1.66,0,0,0,.43-1.47,1.7,1.7,0,0,0-1.05-1.23,8.37,8.37,0,0,1-.84-.44,5.9,5.9,0,0,0-.9-.56,1.71,1.71,0,0,0-1.71,0l.39.39a1.34,1.34,0,0,0-.85-1.94,2.39,2.39,0,0,0-2.44,1,7.08,7.08,0,0,0-.83,1.31,2,2,0,0,0-.28,1.41,1.41,1.41,0,0,0,1.81.74c.1,0,.18-.08.28-.12l.13,0c.13,0,.06,0,.1,0a1.71,1.71,0,0,1,0,.45,1.51,1.51,0,0,0,.07.37.87.87,0,0,0,1,.66.18.18,0,0,0,.12-.21.17.17,0,0,0-.17-.13Z" transform="translate(-0.65 -6.88)"/><path d="M163,122.77l.77,3.42a1.09,1.09,0,0,0,.4.75.94.94,0,0,0,.55.07c2.31-.22,5.16-1.09,6-3.54,1.1-3-.31-7.15-.71-10.21-.12-.94-.59-2.47-1.75-2.52.64,0,1.57-.67,2.19-.19a1.42,1.42,0,0,1,.39.61c.68,1.6,1.28,3.24,1.8,4.9a1.62,1.62,0,0,0,1.81,1.11l.52-.09a1.61,1.61,0,0,0,1.37-1.83s0-.08,0-.11c-.47-2.2-1.44-4.44-3-5.31a2.44,2.44,0,0,1,2.5.83,7,7,0,0,1,1.23,2.49l2.73,8a4.59,4.59,0,0,0,1.07,2c.44.41,1,.64,1.4,1.13a2.89,2.89,0,0,1,.42,1.35q.45,3.12.83,6.25a7.86,7.86,0,0,1,0,2.65,5.85,5.85,0,0,1-1.64,2.68c-3.19,3.22-8,4.19-12.5,4.38a4.75,4.75,0,0,1-2.54-.4A4.81,4.81,0,0,1,165,138a61.28,61.28,0,0,1-1.57-8.51c-.12-1-.38-2.14.3-2.89" transform="translate(-0.65 -6.88)"/><path d="M162.75,122.82c.23,1.19.45,2.38.73,3.55a1.09,1.09,0,0,0,.79.92,3.65,3.65,0,0,0,1.23-.08,8,8,0,0,0,4.36-1.89,6.3,6.3,0,0,0,1.57-4.83,37.4,37.4,0,0,0-.91-5.94c-.26-1.41-.34-4-2.27-4.11V111c.59,0,1.15-.41,1.73-.35.35,0,.48.34.61.62l.48,1.18c.31.8.6,1.6.88,2.41a4.9,4.9,0,0,0,.85,2,1.92,1.92,0,0,0,1.61.56,2.52,2.52,0,0,0,1.72-.69,1.93,1.93,0,0,0,.46-1.67,11.41,11.41,0,0,0-.59-2,6.51,6.51,0,0,0-2.51-3.46l-.07.51a2.23,2.23,0,0,1,2.34.9,9.28,9.28,0,0,1,1.25,2.82l2.24,6.59a8.62,8.62,0,0,0,1.16,2.65c.57.72,1.61,1,1.87,1.91a10.29,10.29,0,0,1,.26,1.57l.24,1.74c.15,1.16.3,2.31.43,3.47a6.74,6.74,0,0,1-.14,3.25,6.39,6.39,0,0,1-1.69,2.29A13.1,13.1,0,0,1,176.7,140a22.76,22.76,0,0,1-5.41,1.13,21.87,21.87,0,0,1-2.8.13,2.75,2.75,0,0,1-2.34-1.16,7.8,7.8,0,0,1-.94-2.47q-.42-1.66-.75-3.33c-.22-1.11-.4-2.22-.55-3.34-.08-.55-.14-1.1-.21-1.66a9.67,9.67,0,0,1-.12-1.31,1.7,1.7,0,0,1,.36-1.17c.26-.31-.18-.76-.45-.45a3.25,3.25,0,0,0-.44,2.65c.15,1.15.28,2.3.47,3.45s.42,2.38.68,3.56a26.05,26.05,0,0,0,.83,3.15,4.22,4.22,0,0,0,1.53,2.17,4.9,4.9,0,0,0,3,.5,27.59,27.59,0,0,0,5.86-.82,15.56,15.56,0,0,0,5.24-2.38c1.61-1.18,3.16-2.79,3.3-4.88a20,20,0,0,0-.3-3.62c-.16-1.22-.32-2.44-.5-3.67-.15-1-.19-2.16-1.06-2.85a9.72,9.72,0,0,1-1.14-.86,3.74,3.74,0,0,1-.7-1.3c-.84-2.27-1.57-4.58-2.35-6.88a23.6,23.6,0,0,0-1.17-3.17,3.6,3.6,0,0,0-2.08-1.92,2.39,2.39,0,0,0-1.35,0,.29.29,0,0,0-.19.36.31.31,0,0,0,.12.16,5.56,5.56,0,0,1,2.11,2.77,12.94,12.94,0,0,1,.63,1.91,1.63,1.63,0,0,1-.21,1.61,1.31,1.31,0,0,1-.63.4,3.68,3.68,0,0,1-.94.14,1.34,1.34,0,0,1-1.24-.89c-.25-.74-.47-1.49-.73-2.22s-.54-1.45-.84-2.16-.48-1.43-1.25-1.54-1.21.32-1.84.34a.29.29,0,0,0-.27.32.29.29,0,0,0,.27.28c.64,0,1,.68,1.21,1.22a11.93,11.93,0,0,1,.41,2.06c.31,1.77.74,3.51.9,5.29.14,1.59.12,3.44-.88,4.77a6.27,6.27,0,0,1-3.65,2.09,11.82,11.82,0,0,1-1.19.2,2.25,2.25,0,0,1-.63.06c-.26,0-.34-.25-.4-.47-.34-1.17-.57-2.37-.88-3.54a.2.2,0,0,0-.39.11Z" transform="translate(-0.65 -6.88)"/><path d="M166,130.82c-8.55,16.41-16.2,37.29-17.94,55-.35,3.64-1.27,3.08-3.61,5.9a46.28,46.28,0,0,0,7.88.72,3.38,3.38,0,0,0,1.67-.29c1-.56,1.19-1.91,1.34-3.07,1.13-8.79,6.81-16.29,9.55-24.73a64.45,64.45,0,0,1,2.18-6.55c1.41-3.13,3.65-5.75,5.8-8.38l6.44-7.95c1.68-2.08,3.85-4.18,4.22-7" transform="translate(-0.65 -6.88)"/><path d="M165.79,130.7q-3.15,5.91-5.83,12c-1.86,4.25-3.58,8.56-5.12,12.93s-2.9,8.75-4.05,13.21a119.69,119.69,0,0,0-2.63,13c-.14,1-.26,2.06-.37,3.09a15.44,15.44,0,0,1-.4,2.7,7.51,7.51,0,0,1-2.21,2.77q-.51.52-1,1.08c-.13.16-.12.49.14.53a45.24,45.24,0,0,0,8.22.69,2.57,2.57,0,0,0,2.48-1.36,10.71,10.71,0,0,0,.64-3c.77-4.76,2.83-9.17,4.91-13.46,1.06-2.19,2.13-4.38,3.08-6.6.46-1.11.9-2.22,1.29-3.35s.77-2.54,1.16-3.81a24.58,24.58,0,0,1,1.42-3.72,23.75,23.75,0,0,1,1.93-3.21c1.48-2.11,3.18-4.07,4.81-6.07l5.31-6.53c1.39-1.71,3-3.34,3.82-5.42a6.48,6.48,0,0,0,.41-1.57c.06-.41-.57-.59-.64-.17-.31,2.22-1.75,4-3.15,5.65-1.7,2-3.33,4.1-5,6.15s-3.3,4-4.88,6a25.8,25.8,0,0,0-3.77,6.35c-.93,2.39-1.48,4.92-2.37,7.33-.84,2.24-1.85,4.41-2.88,6.56-2,4.24-4.22,8.47-5.42,13a28.69,28.69,0,0,0-.67,3.42,4.44,4.44,0,0,1-.91,2.7,2.2,2.2,0,0,1-1.55.49c-.67,0-1.33,0-2-.05a40.3,40.3,0,0,1-4.1-.38q-1-.13-2-.33l.14.53a21.61,21.61,0,0,1,1.76-1.82,6.92,6.92,0,0,0,1.15-1.27,5.15,5.15,0,0,0,.67-1.85c.18-1,.25-2.06.37-3.08A118.19,118.19,0,0,1,151,171c1.09-4.49,2.4-8.93,3.88-13.31s3.12-8.76,4.93-13.05,3.62-8.26,5.63-12.29l.73-1.46c.13-.26-.25-.49-.39-.23Z" transform="translate(-0.65 -6.88)"/><path d="M163,96a1.2,1.2,0,0,0-.35,1.53,1.27,1.27,0,0,0,1.47.58.24.24,0,0,0,.16-.3.27.27,0,0,0-.16-.17,1.16,1.16,0,0,0-1.46.72.14.14,0,0,0,0,.06,1.13,1.13,0,0,0,.89,1.34l.22,0a.25.25,0,0,0,.23-.28.27.27,0,0,0-.23-.24.6.6,0,0,1-.61-.59.6.6,0,0,1,.59-.61.75.75,0,0,1,.26.05v-.47a.81.81,0,0,1-.94-.32.88.88,0,0,1,.15-1.06c.13-.12,0-.38-.21-.26Z" transform="translate(-0.65 -6.88)"/><path class="a" d="M171,136.08c1.26.15,2.53.27,3.79.39.28,0,.28-.42,0-.44-1.26-.11-2.53-.21-3.79-.29C170.77,135.72,170.79,136.06,171,136.08Z" transform="translate(-0.65 -6.88)"/><path class="a" d="M180.3,136.61a8.88,8.88,0,0,0,1.46,0,5.83,5.83,0,0,0,1.44-.21.21.21,0,1,0-.11-.4,12.94,12.94,0,0,1-1.39.21,10.9,10.9,0,0,1-1.4,0c-.23,0-.22.33,0,.35Z" transform="translate(-0.65 -6.88)"/><path class="a" d="M176.87,144.56a13.63,13.63,0,0,1-2.4,2.8,15.63,15.63,0,0,0-2.44,3.06.24.24,0,0,0,.42.24h0a17.25,17.25,0,0,1,2.46-3.12,12.57,12.57,0,0,0,2.26-2.82.17.17,0,0,0-.3-.17Z" transform="translate(-0.65 -6.88)"/><path class="a" d="M148.94,179.44a44.6,44.6,0,0,0,8.53,1.12c.29,0,.29-.45,0-.46a64.38,64.38,0,0,1-8.43-1C148.83,179.08,148.73,179.39,148.94,179.44Z" transform="translate(-0.65 -6.88)"/><path class="a" d="M186.85,180.9c1.07-.76,2.15-1.49,3.28-2.16a8.21,8.21,0,0,1,3.52-1.43c.32,0,.32-.52,0-.5a8,8,0,0,0-3.62,1.46,31.59,31.59,0,0,0-3.39,2.36c-.15.12.05.38.21.27Z" transform="translate(-0.65 -6.88)"/><path class="a" d="M191.83,191.18c.34-.62,1.17-.75,1.67-1.2a6.79,6.79,0,0,0,1.12-1.67,3.63,3.63,0,0,1,1.49-1.54,20.41,20.41,0,0,0,2.11-1,.2.2,0,0,0,0-.29.21.21,0,0,0-.2-.05c-.71.37-1.48.62-2.19,1a4,4,0,0,0-1.49,1.52,6.34,6.34,0,0,1-1.16,1.79c-.54.48-1.3.6-1.65,1.25-.1.19.19.37.29.17Z" transform="translate(-0.65 -6.88)"/><path d="M170.65,107.16a6.14,6.14,0,0,0,.5,1.22.22.22,0,0,0,.26.15.21.21,0,0,0,.14-.26.21.21,0,0,0-.06-.1,8,8,0,0,1-.52-1.11.16.16,0,0,0-.21-.11.17.17,0,0,0-.11.2Z" transform="translate(-0.65 -6.88)"/><path d="M179.43,113.44a50.51,50.51,0,0,1,2.59,10c.15,1,.24,2,.37,2.93,0,.26.48.2.46-.07a33.91,33.91,0,0,0-.78-5.11,49.14,49.14,0,0,0-1.32-5c-.3-.94-.63-1.87-1-2.78-.08-.21-.42-.12-.33.09Z" transform="translate(-0.65 -6.88)"/><path d="M173.27,109.58c1.44-.32,2.87-.7,4.29-1.06s2.7-.83,3.87,0a6.25,6.25,0,0,1,1.9,3,11.9,11.9,0,0,1,.5,1.93,7.36,7.36,0,0,1,.13,2,1.52,1.52,0,0,1-1.06,1.29,8.08,8.08,0,0,1-1.69.29l.21,0,.05.09-.08.18,0,0a.28.28,0,0,0,0-.37.27.27,0,0,0-.35,0,.38.38,0,0,0,0,.53.57.57,0,0,0,.13.08.9.9,0,0,0,.4,0l.46,0a3.56,3.56,0,0,0,1.67-.58,2,2,0,0,0,.79-1.65,11.11,11.11,0,0,0-2-6.41,3.78,3.78,0,0,0-1.46-1.17,3.71,3.71,0,0,0-2.26-.06c-.92.21-1.84.49-2.75.73s-1.92.52-2.87.81a.16.16,0,0,0-.11.21.19.19,0,0,0,.2.12Z" transform="translate(-0.65 -6.88)"/><path d="M168.85,89.12c2.38-.37,5.11-.8,7.29.47A11.56,11.56,0,0,1,179,92.3q1.41,1.65,2.84,3.28c3.16,3.66,6.66,7.69,7.29,12.68a6.29,6.29,0,0,1,0,2.12,3.11,3.11,0,0,1-1,1.73,10.88,10.88,0,0,1-1.73,1.12c-.7.4-1.42.76-2.14,1.12-.32.17,0,.63.28.48.69-.32,1.36-.67,2-1a14.18,14.18,0,0,0,1.65-1,3.89,3.89,0,0,0,1.23-1.41,4.56,4.56,0,0,0,.39-1.86,14.74,14.74,0,0,0-2.22-7.25A42.47,42.47,0,0,0,182.88,96c-1-1.12-1.94-2.25-2.92-3.37a20.12,20.12,0,0,0-2.89-3c-2.41-1.82-5.56-1.35-8.33-.8-.23,0-.13.38.1.35Z" transform="translate(-0.65 -6.88)"/><path d="M170.36,90.56l.66-.17a.21.21,0,0,0,.15-.26.22.22,0,0,0-.26-.15h0l-.66.2a.2.2,0,0,0-.14.24A.22.22,0,0,0,170.36,90.56Z" transform="translate(-0.65 -6.88)"/><path d="M172.78,90a2.77,2.77,0,0,0-1.42.75,2.08,2.08,0,0,0-.92,1.29.92.92,0,0,0,.82,1,1.94,1.94,0,0,0,1.46-.59l-.44-.12a4.18,4.18,0,0,0,.77,1.55,3,3,0,0,0,1.32.71,6.75,6.75,0,0,1,1.46.48,2.66,2.66,0,0,1,1,1.35,72.74,72.74,0,0,0,3.42,6.77,27.42,27.42,0,0,0,2.34,3.44c.15.18.48-.07.34-.27a46.25,46.25,0,0,1-3.81-6.39c-.56-1.11-1.09-2.24-1.6-3.37a6.42,6.42,0,0,0-.8-1.48,2.7,2.7,0,0,0-1.31-.8,8,8,0,0,1-1.59-.53,2.53,2.53,0,0,1-1.07-1.6.26.26,0,0,0-.32-.18l-.06,0a1.61,1.61,0,0,1-1,.47c-.4,0-.47-.39-.28-.7a4.07,4.07,0,0,1,.75-.8,3.11,3.11,0,0,1,1-.64.18.18,0,0,0,.11-.23.18.18,0,0,0-.2-.11Z" transform="translate(-0.65 -6.88)"/><path d="M184.14,106c-.7.27-1.41.53-2.11.81l-1,.4a9.36,9.36,0,0,0-1,.41c-.28.13-.09.57.21.48a8.31,8.31,0,0,0,1-.41l1-.43c.69-.3,1.37-.61,2.05-.93.18-.08.05-.39-.14-.32Z" transform="translate(-0.65 -6.88)"/><path class="a" d="M20.71,58.89c4.55.06,9.09.06,13.64.07H38.2a.23.23,0,0,0,.22-.27.25.25,0,0,0-.22-.22c-4.54,0-9.09,0-13.64,0-1.28,0-2.57,0-3.85,0a.16.16,0,0,0-.17.17.17.17,0,0,0,.17.17Z" transform="translate(-0.65 -6.88)"/><path class="a" d="M20.71,62.1c4.55.07,9.09.06,13.64.08H38.2a.24.24,0,0,0,.22-.27.24.24,0,0,0-.22-.22c-4.54,0-9.09,0-13.64,0-1.28,0-2.57,0-3.85,0a.17.17,0,0,0-.17.17.16.16,0,0,0,.17.17Z" transform="translate(-0.65 -6.88)"/><path class="a" d="M20.71,65.32c4.55.07,9.09.06,13.64.07H38.2a.23.23,0,0,0,.22-.26.26.26,0,0,0-.22-.23c-4.54,0-9.09,0-13.64,0-1.28,0-2.57,0-3.85,0a.17.17,0,0,0-.17.17.16.16,0,0,0,.17.17Z" transform="translate(-0.65 -6.88)"/><path class="a" d="M20.71,68.53c4.55.07,9.09.06,13.64.08H38.2a.25.25,0,0,0,0-.49c-4.54,0-9.09,0-13.64,0-1.28,0-2.57,0-3.85,0a.17.17,0,0,0-.17.17.17.17,0,0,0,.17.18Z" transform="translate(-0.65 -6.88)"/><path class="a" d="M20.71,78.5c4.55.06,9.09.06,13.64.07H38.2a.23.23,0,0,0,.22-.26.25.25,0,0,0-.22-.23c-4.54,0-9.09,0-13.64,0-1.28,0-2.57,0-3.85,0a.17.17,0,0,0-.17.18.17.17,0,0,0,.17.17Z" transform="translate(-0.65 -6.88)"/><path class="a" d="M20.71,81.71c4.55.07,9.09.06,13.64.08H38.2a.25.25,0,0,0,0-.49c-4.54,0-9.09,0-13.64,0-1.28,0-2.57,0-3.85,0a.18.18,0,0,0,0,.35Z" transform="translate(-0.65 -6.88)"/><path class="a" d="M20.71,84.93c4.55.07,9.09.06,13.64.08H38.2a.26.26,0,0,0,.25-.25.25.25,0,0,0-.25-.25c-4.54,0-9.09,0-13.64,0-1.28,0-2.57,0-3.85,0a.16.16,0,0,0-.17.17.17.17,0,0,0,.17.17Z" transform="translate(-0.65 -6.88)"/><path class="a" d="M20.71,88.15c4.55.06,9.09.06,13.64.07H38.2a.25.25,0,0,0,0-.49c-4.54,0-9.09,0-13.64,0-1.28,0-2.57,0-3.85,0a.18.18,0,0,0,0,.35Z" transform="translate(-0.65 -6.88)"/><path d="M46.51,59.21l-2.15.62-1,.31c-.17,0-.34.12-.51.16s-.26,0-.33-.19c-.48-1.39-.92-2.8-1.38-4.2l-.12.31a78.13,78.13,0,0,1,8.75-3.07l9.17-2.75,5.16-1.55-.3-.12a9.56,9.56,0,0,1,1.07,3.15c0,.15,0,.29,0,.44a.73.73,0,0,1,0,.36c-.09.17-.58.25-.75.3l-1.77.58-7.11,2.32-4,1.32c-.32.11-.18.61.14.51l7.72-2.51L62.87,54l1.93-.63a.92.92,0,0,0,.52-.32,1.06,1.06,0,0,0,.11-.74,10.17,10.17,0,0,0-1.19-3.8.27.27,0,0,0-.3-.13l-9.34,2.8c-3,.9-6,1.77-9,2.77-1.66.55-3.29,1.16-4.89,1.86a.27.27,0,0,0-.12.3l.8,2.42c.13.38.26.77.38,1.16a3.06,3.06,0,0,0,.4,1,.75.75,0,0,0,.85.14c.39-.11.78-.25,1.16-.37l2.42-.81a.19.19,0,0,0-.1-.37Z" transform="translate(-0.65 -6.88)"/><path class="a" d="M42.58,56.12l.15.63a.2.2,0,0,0,.38-.09v0L42.9,56a.16.16,0,0,0-.21-.11h0a.16.16,0,0,0-.12.2Z" transform="translate(-0.65 -6.88)"/><path class="a" d="M44.19,55.44s0,0,0,.06v.27a.17.17,0,0,0,0,.07.09.09,0,0,0,0,.06.1.1,0,0,0,.07,0,.08.08,0,0,0,.07,0,.18.18,0,0,0,.19-.19h0v-.22a.15.15,0,0,0-.05-.07.13.13,0,0,0,0-.07l0,0-.06,0h-.09l0,0,0,0Z" transform="translate(-0.65 -6.88)"/><path class="a" d="M45.89,54.8a2.59,2.59,0,0,0,0,.48v.21a1.26,1.26,0,0,0,0,.27.2.2,0,0,0,.21.14.22.22,0,0,0,.17-.19v-.13h0v-.1c0-.07,0-.14,0-.2a3.23,3.23,0,0,1,0-.44.18.18,0,0,0-.16-.17.17.17,0,0,0-.19.13Z" transform="translate(-0.65 -6.88)"/><path class="a" d="M47.74,54.28l0,.25a.21.21,0,0,0,0,.06l0,0,.07,0a.09.09,0,0,0,.07,0,.15.15,0,0,0,.11-.08.2.2,0,0,0,0-.15l-.08-.24a.23.23,0,0,0-.07-.1l-.07,0h-.06a.14.14,0,0,0-.1.08l0,0a.14.14,0,0,0,0,.09Z" transform="translate(-0.65 -6.88)"/><path class="a" d="M49.67,53.68v.15a.81.81,0,0,0,0,.16l0,.31a.24.24,0,0,0,0,.14.2.2,0,0,0,.15.06.21.21,0,0,0,.2-.2l0-.32,0-.2,0-.15a.17.17,0,0,0-.33,0Z" transform="translate(-0.65 -6.88)"/><path class="a" d="M51.15,53.31l0,.19a.2.2,0,0,0,.06.14l.06,0,.08,0h.05a.15.15,0,0,0,.09-.06l0,0a.17.17,0,0,0,0-.1l0-.18a.14.14,0,0,0,0-.07l0-.06a.09.09,0,0,0-.05,0l-.07,0h0a.18.18,0,0,0-.08,0l0,0a.16.16,0,0,0,0,.09Z" transform="translate(-0.65 -6.88)"/><path class="a" d="M53,52.59a1.31,1.31,0,0,0,0,.34l0,.19a.24.24,0,0,0,0,.08.11.11,0,0,0,0,.07.2.2,0,0,0,.08.08.19.19,0,0,0,.26-.07s0,0,0,0a.38.38,0,0,0,0-.15.21.21,0,0,0,0-.07l0-.14v0a1.4,1.4,0,0,1,0-.29.13.13,0,0,0,0-.13.14.14,0,0,0-.1,0,.18.18,0,0,0-.2.13Z" transform="translate(-0.65 -6.88)"/><path class="a" d="M54.82,52.13h-.14l0,0,0,0s0,0,0,0h0v.13s0,0,0,0l0,0v0l0,0,0,0h.1l.08,0,.06,0a.09.09,0,0,0,0-.06.17.17,0,0,0,0-.07V52.3a.14.14,0,0,0-.05-.08l0,0a.14.14,0,0,0-.09,0h0l0,0,0,0,0,0,0,0,0,0v0l0,.05v0h0v0h0l0,0,0,0h0l0,0h0l0,0,.05,0,0,0a.14.14,0,0,0,0-.07v0l0,0a.1.1,0,0,0,0-.05l-.06,0Z" transform="translate(-0.65 -6.88)"/><path class="a" d="M56,51.55a1.67,1.67,0,0,0,0,.39,1.59,1.59,0,0,0,.07.38.2.2,0,1,0,.38-.1,2.38,2.38,0,0,1,0-.26v0a1.48,1.48,0,0,1,0-.42.16.16,0,0,0-.06-.12.19.19,0,0,0-.26,0,.2.2,0,0,0,0,.08Z" transform="translate(-0.65 -6.88)"/><path class="a" d="M57.57,51.37l0,0,0,0a.1.1,0,0,1,0,0l0,0,0,0,0,0a.06.06,0,0,1,0,0v0a.17.17,0,0,0,0,.1l0,0,.07.07.07,0h.07l.06,0a.12.12,0,0,0,0,0,.16.16,0,0,0,0-.09v0s0-.06,0-.08a.14.14,0,0,0,0-.07l0,0a.52.52,0,0,0-.1-.11l-.07,0h0a.22.22,0,0,0-.14,0l0,0a.05.05,0,0,0,0,0s0,0,0,.05v.07l0,0,.06.06Z" transform="translate(-0.65 -6.88)"/><path class="a" d="M59.12,50.71v.07h0V51a2.46,2.46,0,0,1,0,.28v-.05s0,.07,0,.1v.06a.19.19,0,0,0,.19.19.19.19,0,0,0,.18-.14.9.9,0,0,0,0-.4,1.8,1.8,0,0,0-.07-.38.17.17,0,0,0-.33.09Z" transform="translate(-0.65 -6.88)"/><path class="a" d="M60.5,50.3l0,.25a.08.08,0,0,0,0,.07.09.09,0,0,0,0,.06l.07,0,.07,0a.18.18,0,0,0,.13-.06.16.16,0,0,0,.06-.13l0-.25a.14.14,0,0,0,0-.06.09.09,0,0,0,0-.06.18.18,0,0,0-.12,0,.17.17,0,0,0-.12,0l0,0a.24.24,0,0,0,0,.08Z" transform="translate(-0.65 -6.88)"/><path class="a" d="M62.14,50a.18.18,0,0,0,.17-.17.17.17,0,0,0-.17-.16.16.16,0,0,0-.16.16A.17.17,0,0,0,62.14,50Z" transform="translate(-0.65 -6.88)"/><path class="a" d="M62,49.81l0,.34,0,.17a.91.91,0,0,0,0,.17.18.18,0,0,0,.17.18.17.17,0,0,0,.2-.13.76.76,0,0,0,0-.21v-.17l0-.35a.18.18,0,0,0-.19-.18.18.18,0,0,0-.18.18Z" transform="translate(-0.65 -6.88)"/><path class="a" d="M63.32,49.44l0,.19,0,.06.05.05.07,0a.09.09,0,0,0,.07,0l0,0a.12.12,0,0,0,.06-.06l0,0v-.1l-.07-.18a.24.24,0,0,0-.09-.11l-.06,0h-.08l0,0a.12.12,0,0,0-.06.06.18.18,0,0,0,0,.14Z" transform="translate(-0.65 -6.88)"/><path d="M143.48,73.38H97.41c-.63,0-1.25,0-1.88,0h-.08l.5.5V48.44c0-.34,0-.7,0-1v0l-.5.49h46.07c.63,0,1.25,0,1.88,0h.08l-.49-.49V70.61c0,1.07,0,2.15,0,3.22v0a.5.5,0,0,0,1,0V50.62c0-1.07,0-2.14,0-3.22v0a.51.51,0,0,0-.5-.5h-48a.51.51,0,0,0-.49.5V70.61c0,1.07,0,2.15,0,3.22v0a.49.49,0,0,0,.49.49h46.07c.63,0,1.25,0,1.88,0h.08A.5.5,0,0,0,143.48,73.38Z" transform="translate(-0.65 -6.88)"/><path class="a" d="M98.35,50.34H140.6V70.9H98.35Z" transform="translate(-0.65 -6.88)"/><path class="b" d="M106.34,58.89c.18,1.26.4,2.52.54,3.79l.23-.29c-.49.14-1,.35-1.45.53s-.71.28-.82.68a1.24,1.24,0,0,0,.08.63.43.43,0,0,1,0,.45c-.26.36-.78.27-1.15.2a.36.36,0,0,0-.43.26.25.25,0,0,0,0,.17c.17.61-.3,1.12-.73,1.48s-1.08.85-1.61,1.29-1.06.89-1.58,1.35l-.77.68a6.22,6.22,0,0,0-.78.76c-.18.22,0,.62.33.43a9.05,9.05,0,0,0,.89-.75l.85-.75c.6-.49,1.2-1,1.81-1.46,1-.76,2.7-1.71,2.26-3.21l-.42.42a2.29,2.29,0,0,0,1.42-.07,1.16,1.16,0,0,0,.7-1,2,2,0,0,0-.14-.64c0-.19.13-.23.28-.29.5-.22,1-.4,1.51-.65a.32.32,0,0,0,.14-.35c-.3-1.25-.51-2.54-.77-3.81,0-.24-.4-.13-.37.1Z" transform="translate(-0.65 -6.88)"/><path class="b" d="M113.4,63.85a20,20,0,0,1-1-2.25.26.26,0,0,0-.25-.19c-.64,0-1,.54-1.4,1a2.91,2.91,0,0,1-.3.31l-.06,0c-.1,0-.09.06,0,.05l-.18-.18-.86-.83a.31.31,0,0,0-.44,0l-.05.06-.7,1.15.45-.11a2.05,2.05,0,0,0-1.23-.3c-.41,0-.41.69,0,.66a1.58,1.58,0,0,1,.9.21.33.33,0,0,0,.45-.12l.67-1.16-.49.06.94.89c.29.28.54.36.87.1.53-.4.77-1.15,1.46-1.31l-.29-.12c.42.74.73,1.52,1.2,2.23a.18.18,0,0,0,.24.06.18.18,0,0,0,.07-.24h0Z" transform="translate(-0.65 -6.88)"/><path class="b" d="M109.59,66.18c0-.24.11-.48.16-.71s.15-.5,0-.7-.38-.18-.58-.17l-.76,0,.27.27a7.67,7.67,0,0,0-.33-1.77.29.29,0,0,0-.35-.19.28.28,0,0,0-.19.19l0,.18a.26.26,0,1,0,.51.14l.07-.17h-.54a12.57,12.57,0,0,1,.33,1.62.27.27,0,0,0,.27.27l.56,0,.25,0h.18l-.06-.1a.65.65,0,0,1,0,.24c0,.11,0,.21,0,.31s0,.42,0,.61a.17.17,0,0,0,.33,0Z" transform="translate(-0.65 -6.88)"/><path class="b" d="M107.68,66.51v-.06a.29.29,0,0,0,0-.09.22.22,0,0,0,0-.08l-.08,0-.09,0h-.06a.24.24,0,0,0-.11.06l0,0a.19.19,0,0,0,0,.12v.06a.29.29,0,0,0,0,.09.22.22,0,0,0,0,.08l.08,0,.09,0h.06a.24.24,0,0,0,.11-.06l0-.05A.27.27,0,0,0,107.68,66.51Z" transform="translate(-0.65 -6.88)"/><path class="b" d="M111.22,65.59l-.07-.18a.19.19,0,0,0,0-.08l-.06,0a.25.25,0,0,0-.17,0l0,0a.23.23,0,0,0-.07.07l0,.06a.2.2,0,0,0,0,.11l0,.18a.2.2,0,0,0,0,.08l.06,0a.13.13,0,0,0,.08,0,.14.14,0,0,0,.09,0l.05,0a.18.18,0,0,0,.07-.08l0-.05a.24.24,0,0,0,0-.12Z" transform="translate(-0.65 -6.88)"/><path class="b" d="M109.47,60.77a.22.22,0,0,0,0-.43.22.22,0,1,0,0,.43Z" transform="translate(-0.65 -6.88)"/><path class="b" d="M103.77,60.19a4.89,4.89,0,0,0,1.21.05l-.24-.25c0,.36,0,.72,0,1.08a.91.91,0,0,1,0,.23.28.28,0,0,1-.1.14.55.55,0,0,0-.15.46c0,.31.31.51.48.76a2.18,2.18,0,0,1,.32.88l.37-.28a2.06,2.06,0,0,0-.35,0c-.22,0-.37.36-.12.47a1.15,1.15,0,0,0,.31.11c.16,0,.4-.08.37-.28a3,3,0,0,0-.29-1,3.42,3.42,0,0,0-.26-.4c-.07-.08-.26-.24-.26-.35s.15-.21.18-.28a1.59,1.59,0,0,0,.07-.48,5.43,5.43,0,0,0,0-1.14.25.25,0,0,0-.3-.17,2.15,2.15,0,0,1-1,.08c-.23,0-.33.3-.1.35Z" transform="translate(-0.65 -6.88)"/><path class="b" d="M104,65a.25.25,0,0,0,.23-.26.27.27,0,0,0-.23-.23.26.26,0,0,0-.22.27A.25.25,0,0,0,104,65Z" transform="translate(-0.65 -6.88)"/><path class="b" d="M106.76,68.59a5.59,5.59,0,0,1-2-.21c-.25-.08-.48-.16-.71,0s-.29.44-.44.65a3.08,3.08,0,0,1-.56.58,2,2,0,0,1-.69.4c-.13,0-.18,0-.29-.1a2.45,2.45,0,0,1-.35-.29,4.4,4.4,0,0,1-.54-.67.34.34,0,0,0-.46-.1.34.34,0,0,0-.11.44,3.13,3.13,0,0,0,1.3,1.3c.55.28,1.17-.19,1.59-.54a3.59,3.59,0,0,0,.59-.64c.08-.12.16-.25.23-.38s.08-.19.25-.16a6.65,6.65,0,0,0,2.18.09c.24,0,.25-.4,0-.39Z" transform="translate(-0.65 -6.88)"/><path class="b" d="M101.75,62.22c0,.39,0,.77-.07,1.16a1,1,0,0,0,0,.51,1.12,1.12,0,0,0,.38.34,2.47,2.47,0,0,0,.46.23c.15.06.31.08.46.14a.45.45,0,0,1,.26.23c.06.14,0,.27,0,.41a.26.26,0,0,0,.32.17.24.24,0,0,0,.11-.06.81.81,0,0,0-.11-.95,1.79,1.79,0,0,0-.9-.42,1.72,1.72,0,0,1-.44-.19s-.16-.08-.18-.13a.41.41,0,0,1,0-.22c0-.42,0-.82,0-1.23a.18.18,0,0,0-.19-.15.17.17,0,0,0-.15.15Z" transform="translate(-0.65 -6.88)"/><path class="b" d="M100.93,66.3a.22.22,0,0,0,.23-.22.23.23,0,1,0-.45,0A.22.22,0,0,0,100.93,66.3Z" transform="translate(-0.65 -6.88)"/><path class="b" d="M120.14,58.58a14.94,14.94,0,0,1,3.52,1.67.32.32,0,0,0,.37,0,7.22,7.22,0,0,0,1.57-1.91,6.49,6.49,0,0,1,.58-1,1.85,1.85,0,0,1,.91-.59,6.53,6.53,0,0,1,1.07-.21,1.31,1.31,0,0,0,1-.41,8.23,8.23,0,0,0,.62-1.22l.64-1.29,1.47-3c.18-.36-.36-.67-.54-.31q-1.29,2.57-2.56,5.13c-.09.17-.14.34-.33.4a3.57,3.57,0,0,1-.56.07,5.07,5.07,0,0,0-1.08.23,2.68,2.68,0,0,0-1.58,1.48,7.14,7.14,0,0,1-1.67,2.22l.37-.05a27.52,27.52,0,0,0-3.69-1.62c-.31-.1-.44.38-.13.48Z" transform="translate(-0.65 -6.88)"/><path class="b" d="M130.33,63.09c.37-.86.7-1.76,1.14-2.58a.28.28,0,0,0-.1-.37c-.29-.12-.59-.22-.89-.33l-.44-.16c-.1,0-.33-.08-.39-.17a1.15,1.15,0,0,1,0-.37c0-.15,0-.29,0-.44a4.34,4.34,0,0,1,.19-.81,4.79,4.79,0,0,1,.35-.72.52.52,0,0,0-.07-.68,2.07,2.07,0,0,0-.64-.29,3,3,0,0,1-.59-.41.28.28,0,0,0-.4,0,.27.27,0,0,0-.07.27.94.94,0,0,0,.5.57,2.21,2.21,0,0,0,.35.16,1.68,1.68,0,0,0,.39.16l.05,0-.08-.14a1,1,0,0,0-.13.23,2.87,2.87,0,0,0-.18.4,3.8,3.8,0,0,0-.26.89,4.26,4.26,0,0,0-.07.87,1,1,0,0,0,.23.75,2.23,2.23,0,0,0,.83.33c.36.12.72.25,1.09.35L131,60.3c-.28.89-.7,1.76-1.05,2.63-.09.22.3.39.4.16Z" transform="translate(-0.65 -6.88)"/><path class="b" d="M134.13,54.86a2.15,2.15,0,0,0-1,.47l-.22.19a1.46,1.46,0,0,1-.16.19.84.84,0,0,1-.3-.08l-.36-.07a2.35,2.35,0,0,0-.59-.1.84.84,0,0,0-.53.3,2.62,2.62,0,0,1-.53.33,2.66,2.66,0,0,0-.59.28.25.25,0,0,0,0,.36.17.17,0,0,0,.1.06,1.71,1.71,0,0,0,1.15-.44c.12-.1.31-.34.47-.34a5.28,5.28,0,0,1,.67.13,1.47,1.47,0,0,0,.59.06c.19,0,.28-.2.4-.34a3,3,0,0,1,1-.67c.16-.07.08-.36-.1-.34Z" transform="translate(-0.65 -6.88)"/><path class="b" d="M126.53,53.38a.25.25,0,1,0-.25-.25A.25.25,0,0,0,126.53,53.38Z" transform="translate(-0.65 -6.88)"/></svg>