<svg xmlns="http://www.w3.org/2000/svg" width="37.236" height="37.236" viewBox="0 0 37.236 37.236"><defs><style>.a{fill:#25d366;}.b{fill:#fff;fill-rule:evenodd;}</style></defs><g transform="translate(-912.764 -962.691)"><g transform="translate(912.764 962.691)"><path class="a" d="M18.618,37.236h0A18.62,18.62,0,0,1,0,18.618H0A18.62,18.62,0,0,1,18.618,0h0A18.62,18.62,0,0,1,37.236,18.618h0A18.62,18.62,0,0,1,18.618,37.236Z"/><g transform="translate(6.334 6.36)"><path class="b" d="M191.094,174.39a12.239,12.239,0,0,0-19.258,14.764l-1.735,6.341,6.486-1.7a12.2,12.2,0,0,0,5.846,1.489h0a12.243,12.243,0,0,0,8.657-20.893Zm-8.654,18.826h0a10.139,10.139,0,0,1-5.176-1.419l-.372-.22-3.85,1.009,1.028-3.753-.242-.384a10.17,10.17,0,1,1,8.616,4.766Zm5.578-7.618c-.305-.153-1.81-.894-2.089-.994s-.484-.153-.689.153-.789.994-.968,1.2-.357.231-.663.078a8.316,8.316,0,0,1-2.458-1.519,9.285,9.285,0,0,1-1.7-2.119c-.179-.305-.019-.473.134-.626s.305-.357.458-.536a2.038,2.038,0,0,0,.305-.51.563.563,0,0,0-.026-.536c-.078-.153-.689-1.657-.942-2.271-.249-.6-.5-.514-.689-.525s-.384-.011-.585-.011a1.125,1.125,0,0,0-.815.384,3.433,3.433,0,0,0-1.069,2.551,5.934,5.934,0,0,0,1.247,3.161,13.629,13.629,0,0,0,5.224,4.617,17.468,17.468,0,0,0,1.743.644,4.175,4.175,0,0,0,1.925.123,3.154,3.154,0,0,0,2.063-1.452,2.587,2.587,0,0,0,.179-1.452C188.528,185.828,188.323,185.754,188.018,185.6Z" transform="translate(-170.1 -170.8)"/></g></g></g></svg>